<?xml version="1.0" standalone="no"?>
<!DOCTYPE svg PUBLIC "-//W3C//DTD SVG 20010904//EN"
 "http://www.w3.org/TR/2001/REC-SVG-20010904/DTD/svg10.dtd">
<svg version="1.0" xmlns="http://www.w3.org/2000/svg"
 width="1200.000000pt" height="675.000000pt" viewBox="0 0 1200.000000 675.000000"
 preserveAspectRatio="xMidYMid meet">

<g transform="translate(0.000000,675.000000) scale(0.100000,-0.100000)"
fill="#000000" stroke="none">
<path d="M0 4850 c0 -1045 3 -1900 8 -1900 4 0 36 -5 72 -11 36 -6 74 -11 85
-12 36 -2 60 -48 38 -71 -4 -4 -7 -18 -8 -33 0 -22 -9 -29 -75 -54 l-75 -28
65 5 66 6 11 -36 c6 -20 8 -36 5 -35 -4 0 -49 8 -99 18 -76 15 -93 15 -93 4 0
-7 10 -13 23 -14 12 0 31 -5 42 -10 14 -6 8 -7 -22 -3 -39 5 -43 4 -43 -16 0
-18 5 -21 28 -18 15 2 35 10 45 18 16 14 69 16 109 4 25 -7 23 -47 -3 -70 -21
-19 -21 -19 -18 1 4 19 -1 20 -73 20 -42 0 -80 -4 -85 -8 -16 -17 25 -28 87
-23 43 4 60 2 50 -4 -8 -5 -43 -10 -77 -10 l-63 0 0 -1285 0 -1285 6000 0
6000 0 -1 1298 c0 713 -3 1292 -5 1286 -4 -9 -13 -8 -33 2 -26 13 -32 12 -59
-3 -30 -17 -31 -17 -49 6 -16 19 -25 23 -47 17 -15 -4 -25 -10 -22 -14 9 -15
-44 -5 -63 12 -18 16 -20 16 -33 -3 -14 -20 -15 -19 -13 16 0 28 6 41 23 49
12 6 19 14 15 17 -3 4 -2 7 4 7 6 0 16 -6 22 -14 10 -12 8 -15 -11 -19 -21 -4
-21 -4 4 -6 14 0 29 -7 31 -13 4 -10 6 -9 6 1 1 11 4 11 16 1 8 -7 15 -8 15
-2 0 5 -10 17 -22 26 -22 15 -20 16 37 13 57 -2 60 -3 57 -26 -3 -21 -1 -23
24 -18 18 3 43 -2 66 -14 l37 -19 0 101 c0 82 -3 98 -12 85 -13 -17 -52 -12
-41 5 7 12 -27 11 -46 -1 -9 -6 -19 -5 -29 3 -8 7 -17 11 -20 9 -3 -1 -7 11
-8 27 -1 17 5 32 13 35 8 3 14 -1 14 -9 0 -9 10 -15 25 -15 14 0 25 5 25 10 0
6 -4 10 -9 10 -5 0 -4 11 2 25 l12 24 5 -22 c6 -25 46 -36 64 -17 8 8 7 10 -6
5 -11 -4 -18 -2 -18 4 0 6 6 11 14 11 11 0 14 26 15 130 l2 130 -36 21 c-19
12 -35 25 -35 29 0 17 18 20 30 5 7 -8 19 -15 26 -15 11 0 14 24 14 115 0 104
-2 114 -17 109 -17 -5 -17 -5 0 9 16 13 17 105 17 1671 l0 1656 -6000 0 -6000
0 0 -1900z m2501 -447 c0 -15 2 -15 9 2 7 16 9 13 9 -17 1 -37 -14 -52 -25
-24 -3 8 -13 12 -24 9 -27 -7 -33 14 -8 31 29 21 38 20 39 -1z m3892 -52 c5
-19 -27 -46 -43 -36 -6 4 -10 1 -10 -6 0 -7 -9 -2 -20 11 -25 29 -25 35 2 47
30 13 65 5 71 -16z m588 -38 c13 -16 12 -17 -3 -4 -10 7 -18 15 -18 17 0 8 8
3 21 -13z m1842 -23 c26 -6 104 -10 172 -10 77 0 125 -4 125 -10 0 -6 35 -10
85 -10 62 0 85 -3 85 -13 0 -19 122 -41 228 -42 51 0 84 -2 75 -6 -10 -3 14
-10 55 -14 40 -4 78 -13 85 -19 7 -7 21 -16 32 -20 30 -12 165 -23 165 -14 0
4 7 8 15 8 10 0 15 -10 15 -30 0 -16 5 -30 10 -30 6 0 10 12 10 27 0 21 3 24
12 15 9 -9 15 -9 25 0 10 8 17 8 26 -2 9 -10 9 -11 0 -6 -10 5 -13 -3 -13 -30
0 -21 3 -34 7 -31 3 4 17 -2 29 -14 21 -20 22 -20 20 -3 -2 11 -1 14 1 7 2 -6
14 -13 25 -15 14 -2 22 -12 25 -28 2 -18 1 -21 -6 -10 -5 8 -8 17 -6 20 2 3
-15 6 -39 6 -36 -1 -41 -3 -29 -14 10 -10 10 -18 2 -34 -12 -22 -12 -21 18
-37 14 -7 20 -17 17 -26 -4 -10 0 -15 14 -15 18 0 25 -8 32 -35 1 -5 9 -19 16
-30 12 -17 11 -22 -12 -46 -21 -22 -23 -28 -11 -40 11 -12 4 -14 -48 -13 -33
1 -74 8 -90 16 -38 18 -64 13 -58 -11 7 -29 -26 -35 -59 -11 -15 11 -33 20
-41 20 -18 0 -37 -20 -37 -40 0 -19 38 -53 51 -45 12 8 37 -17 31 -33 -2 -6 1
-12 8 -12 6 0 10 -6 9 -12 -3 -27 1 -39 12 -32 6 3 15 0 20 -7 6 -11 12 -9 29
9 24 26 53 26 58 -1 2 -11 -3 -17 -16 -17 -11 0 -35 -14 -52 -31 -40 -41 -36
-79 10 -79 16 0 32 5 35 11 5 6 12 4 20 -7 12 -17 14 -17 49 0 20 9 36 22 36
28 0 6 6 6 16 -3 13 -10 17 -10 24 0 6 11 9 11 15 0 5 -7 0 -19 -12 -29 -12
-9 -23 -28 -25 -41 -3 -24 -12 -27 -54 -14 -18 6 -21 2 -22 -28 -1 -30 2 -36
24 -40 19 -3 30 2 46 24 16 22 29 28 54 27 18 -1 31 -4 29 -8 -2 -3 0 -12 5
-20 8 -12 13 -11 30 8 12 12 26 19 33 15 8 -5 8 -8 -1 -11 -7 -2 -12 -15 -12
-28 0 -25 14 -32 25 -14 4 6 15 8 25 5 16 -5 19 0 18 32 0 45 23 108 29 81 3
-10 8 -18 13 -18 5 0 15 -3 24 -6 12 -5 16 0 16 20 0 14 5 26 10 26 6 0 10 -7
10 -15 0 -8 5 -15 11 -15 5 0 9 10 7 23 -2 13 2 22 10 21 36 -3 42 -5 42 -15
0 -6 -9 -9 -20 -6 -17 4 -20 0 -19 -31 0 -21 3 -31 6 -24 2 6 8 10 13 7 12 -7
0 -45 -15 -45 -7 0 -13 -6 -12 -12 1 -34 -4 -47 -17 -42 -10 4 -13 -2 -10 -21
2 -26 2 -26 -17 -9 -14 13 -16 20 -8 31 8 9 8 13 1 13 -6 0 -16 -9 -22 -20
-14 -25 -41 -26 -59 -1 -13 17 -16 18 -37 5 -26 -18 -36 -59 -18 -75 8 -6 14
-18 14 -25 0 -35 59 13 60 49 0 9 7 17 16 17 8 0 13 -3 10 -8 -2 -4 2 -16 10
-27 13 -17 17 -18 36 -6 19 12 20 11 15 -8 -3 -14 0 -21 10 -21 10 0 12 6 8
21 -5 15 -4 19 4 15 6 -4 11 -2 11 3 0 6 -5 11 -10 11 -7 0 -6 8 1 22 8 14 14
18 17 10 2 -6 8 -10 13 -7 5 4 6 -1 3 -9 -5 -12 1 -16 25 -16 26 0 31 4 31 25
0 28 9 32 29 13 11 -11 11 -9 0 9 -7 12 -19 19 -28 16 -10 -3 -12 -2 -5 4 6 4
14 15 17 23 4 11 6 10 6 -4 1 -18 2 -18 21 -1 11 10 20 28 20 39 l1 21 12 -21
c7 -12 18 -19 25 -17 6 3 12 -3 12 -13 0 -13 5 -12 27 10 22 22 32 25 62 20
20 -4 51 -18 69 -32 32 -25 33 -27 15 -40 -17 -13 -16 -14 10 -9 37 6 121 -39
113 -60 -3 -8 -6 -20 -6 -27 0 -7 -16 -11 -39 -11 -22 0 -37 4 -34 9 4 5 1 6
-6 1 -13 -8 -62 38 -74 70 -4 9 -12 13 -18 9 -8 -4 -9 1 -4 17 8 24 8 24 -14
5 -25 -22 -27 -36 -6 -36 9 0 12 -6 9 -15 -4 -10 0 -15 11 -15 14 0 15 -3 5
-15 -7 -8 -9 -23 -5 -36 l7 -22 15 24 c13 23 13 23 8 2 -4 -13 -2 -30 4 -40 5
-10 6 -24 1 -34 -8 -13 -5 -16 17 -13 19 2 23 0 14 -9 -14 -14 -14 -27 0 -27
5 0 8 3 6 8 -3 4 1 13 9 19 10 10 15 10 20 1 11 -18 -43 -60 -64 -49 -17 9
-62 -2 -62 -15 0 -3 7 -4 15 0 8 3 14 0 12 -6 -4 -21 52 -19 66 3 15 24 27 24
27 0 0 -37 -11 -53 -27 -40 -12 10 -13 8 -9 -14 3 -17 0 -27 -7 -27 -21 0 -40
17 -33 29 4 6 12 9 17 6 5 -3 6 1 3 9 -8 22 -11 20 -29 -14 -12 -24 -19 -28
-37 -21 -24 9 -37 31 -18 31 6 0 8 -4 5 -10 -3 -5 -1 -10 4 -10 6 0 11 4 11
10 0 5 7 7 16 3 12 -4 15 -1 12 13 -3 15 -10 18 -36 16 -17 -2 -32 1 -32 6 0
14 -43 58 -64 66 -12 4 -25 -1 -37 -15 -13 -16 -19 -18 -21 -8 0 8 -2 19 -2
24 -1 6 -10 22 -21 36 -16 19 -27 23 -50 19 -24 -4 -31 -11 -33 -34 -2 -16 0
-26 6 -22 14 9 52 -29 52 -52 0 -11 -8 -23 -17 -25 -14 -4 -12 -5 5 -6 12 0
22 -7 23 -13 0 -10 2 -10 6 0 4 10 8 10 19 1 15 -12 19 -39 7 -39 -22 0 -77
45 -86 71 -14 37 -51 37 -53 1 -1 -15 3 -21 11 -18 9 3 11 -2 7 -17 -5 -19 -3
-20 10 -10 15 13 28 8 28 -9 0 -5 -10 -13 -22 -18 l-23 -9 24 0 c24 -1 24 -1
5 -23 -10 -12 -14 -18 -7 -15 6 4 14 3 18 -3 3 -5 -3 -10 -13 -10 -20 0 -32
18 -32 48 0 18 -47 45 -62 36 -4 -3 -11 8 -14 25 -4 17 -11 31 -16 31 -6 0 -8
-11 -6 -24 4 -18 1 -22 -12 -19 -11 3 -19 -3 -23 -17 -4 -17 -2 -20 10 -16 12
5 13 3 5 -6 -7 -9 -6 -17 3 -25 11 -10 15 -10 19 0 3 9 7 8 15 -3 6 -8 11 -19
11 -24 0 -8 -75 -3 -139 9 -18 4 -31 3 -28 -2 3 -4 -21 -10 -54 -11 -50 -3
-59 0 -59 14 0 17 -1 17 -13 0 -12 -16 -14 -16 -26 -2 -15 17 -36 22 -26 6 3
-5 -1 -10 -9 -10 -16 0 -31 34 -21 50 4 6 12 7 18 4 7 -4 8 -3 4 2 -5 5 -14 9
-20 9 -6 0 -17 10 -23 23 -10 21 -33 28 -26 9 1 -5 -3 -5 -9 -1 -6 3 -15 0
-20 -7 -12 -20 -11 -31 3 -23 7 5 9 2 5 -9 -3 -9 -2 -17 3 -19 4 -2 6 -15 3
-30 -5 -28 -6 -28 -87 -28 -50 0 -87 5 -94 12 -9 9 -12 9 -12 -2 0 -7 -3 -10
-6 -7 -4 4 -1 14 7 23 21 25 20 47 -3 71 -24 26 -78 32 -78 9 0 -8 -6 -16 -12
-19 -9 -3 -7 -9 6 -19 18 -14 18 -15 1 -21 -10 -4 -15 -13 -11 -22 3 -8 1 -15
-4 -15 -6 0 -10 9 -10 20 0 23 -4 24 -30 10 -11 -6 -17 -17 -14 -24 8 -22 -56
-25 -876 -36 -415 -5 -866 -13 -1002 -16 l-248 -7 -1 44 c-1 24 -3 197 -5 384
-2 187 -7 368 -10 402 -4 36 -1 82 6 112 12 52 7 91 -13 91 -7 0 -24 10 -39
23 -21 17 -28 32 -30 64 -1 23 -5 40 -9 37 -5 -2 -46 29 -92 70 -65 58 -84 80
-82 98 2 18 -3 23 -21 24 -13 1 -21 -2 -18 -7 9 -16 -2 -10 -20 10 -13 14 -14
21 -5 27 7 4 10 3 5 -4 -3 -6 -2 -13 3 -16 5 -4 13 -2 16 4 4 6 15 8 26 5 13
-4 19 -2 19 9 0 9 5 16 10 16 6 0 10 7 10 15 0 12 16 15 80 15 47 0 80 4 80
10 0 6 58 10 153 11 83 0 206 8 272 17 100 14 192 17 555 14 239 -1 457 -7
483 -12z m-4493 -27 c0 4 9 3 19 -3 17 -9 18 -14 9 -41 -6 -18 -16 -28 -23
-25 -7 2 -18 -1 -24 -7 -8 -8 -11 -8 -11 1 0 7 -7 12 -16 12 -8 0 -12 5 -9 10
4 6 1 17 -5 25 -10 12 -9 15 4 15 10 0 15 4 11 9 -8 13 28 19 37 6 4 -5 8 -6
8 -2z m2790 -10 c0 -5 -7 -17 -15 -27 -12 -16 -18 -17 -27 -8 -9 9 -9 12 1 12
7 0 9 5 5 12 -4 6 -3 8 4 4 6 -3 13 -2 17 4 7 12 15 13 15 3z m-1595 -52 c-21
-18 -225 -141 -234 -141 -6 0 -11 -4 -11 -8 0 -4 -61 -46 -135 -93 -209 -131
-275 -160 -275 -123 0 8 -4 12 -10 9 -5 -3 -10 -1 -10 5 0 6 -4 8 -10 5 -5 -3
-10 0 -10 8 0 8 -6 17 -14 20 -10 4 -12 0 -9 -14 6 -21 -7 -25 -25 -7 -13 13
-18 229 -4 227 4 -1 16 -1 27 0 17 1 18 3 5 12 -11 8 -8 9 13 4 19 -4 26 -2
22 4 -3 7 0 8 9 5 11 -4 16 0 17 12 1 17 2 17 6 1 2 -9 8 -15 13 -12 5 3 7 12
3 20 -3 10 1 15 15 15 11 0 22 4 24 9 4 13 91 21 245 24 68 1 123 5 123 9 0 4
37 9 83 11 45 1 98 4 117 5 19 1 30 -2 25 -7z m1196 -7 c13 -11 15 -22 10 -37
-14 -37 -12 -205 4 -391 9 -99 18 -183 21 -188 3 -5 0 -15 -6 -23 -9 -11 -10
-50 -6 -137 3 -68 5 -126 6 -130 0 -5 6 -8 14 -8 9 0 16 12 18 33 2 26 7 31
23 29 11 -2 25 -4 31 -4 5 -1 8 -14 6 -30 -2 -15 1 -35 8 -43 6 -8 9 -19 5
-25 -3 -5 -2 -10 4 -10 14 0 9 149 -6 158 -6 4 -21 51 -34 104 -13 53 -27 94
-31 92 -4 -3 -8 -34 -8 -68 0 -81 -10 -133 -21 -114 -5 7 -9 27 -9 43 0 23 3
27 10 15 7 -10 8 96 4 328 l-6 344 26 -17 c14 -10 26 -25 26 -34 0 -9 5 -50
11 -91 18 -129 37 -373 31 -388 -3 -10 -1 -13 6 -9 7 5 10 79 8 237 -2 127 1
230 4 230 15 0 30 -28 24 -44 -3 -9 -2 -16 3 -16 14 0 33 -117 33 -202 0 -49
6 -86 16 -107 10 -21 13 -36 6 -44 -13 -17 -21 -67 -11 -73 12 -7 11 -65 -1
-84 -8 -12 -10 -12 -10 5 0 17 -2 17 -10 5 -16 -26 -23 -99 -11 -114 7 -8 10
-19 9 -24 -2 -6 6 -17 16 -25 11 -8 22 -33 26 -58 7 -40 8 -38 10 31 3 80 5
75 15 -32 5 -49 11 -68 21 -68 8 0 14 -8 14 -17 0 -15 -2 -16 -10 -3 -8 13
-10 13 -14 0 -13 -35 -1 -75 27 -88 19 -9 27 -21 27 -38 0 -14 4 -23 8 -20 4
2 8 -17 8 -44 0 -28 -4 -46 -9 -43 -6 4 -7 -14 -3 -45 3 -28 6 -122 5 -209 0
-87 -1 -201 0 -253 0 -52 -3 -113 -7 -134 -7 -39 -8 -40 -50 -41 -25 -1 -42 3
-42 10 0 6 -6 20 -14 31 -20 26 -37 8 -39 -44 -1 -22 -6 -40 -11 -39 -6 1 -12
-6 -14 -17 -2 -11 0 -16 6 -12 15 9 11 -36 -5 -52 -7 -7 -11 -31 -9 -60 2 -26
4 -68 5 -94 1 -57 21 -65 21 -9 0 25 5 41 14 44 8 3 16 22 18 42 2 19 8 34 13
33 6 -2 8 -7 6 -13 -9 -25 -5 -87 6 -93 7 -5 11 -18 8 -30 -2 -12 1 -24 6 -28
6 -3 10 -20 9 -38 -4 -68 1 -116 11 -116 6 0 9 28 8 77 -1 51 2 78 9 81 9 3
12 -20 12 -76 0 -72 -2 -80 -22 -90 -22 -10 -21 -11 10 -11 48 -1 39 -21 -10
-23 -24 -1 -61 -3 -83 -4 -174 -11 -228 -13 -212 -8 12 4 17 16 17 41 0 27 -3
34 -15 29 -12 -4 -15 7 -16 67 -1 40 -4 83 -9 97 -4 14 -5 -60 -2 -164 3 -128
2 -187 -5 -183 -7 4 -13 146 -18 389 -4 211 -11 435 -15 498 -9 122 -8 53 6
-597 6 -258 5 -293 -8 -293 -25 0 -28 93 -26 810 1 371 4 648 8 615 7 -60 7
-60 10 -15 l3 45 8 -45 c4 -25 7 182 7 460 0 278 3 544 7 592 6 82 8 87 25 78
17 -9 18 -7 10 20 -10 34 3 40 31 14z m-1831 -36 c0 -7 -23 -12 -42 -9 -5 0
-8 -3 -8 -8 0 -6 -33 -13 -72 -17 -61 -7 -67 -9 -38 -14 26 -4 11 -7 -55 -13
-50 -3 -104 -2 -120 2 -29 9 -28 9 15 11 42 2 43 3 15 10 -22 6 -6 8 55 9 47
1 103 5 125 10 23 4 -34 6 -130 5 l-170 -2 130 8 c72 5 144 11 160 13 55 6
135 3 135 -5z m1890 -10 c0 -6 -6 -5 -15 2 -8 7 -15 14 -15 16 0 2 7 1 15 -2
8 -4 15 -11 15 -16z m-2360 -20 c-1 -22 -1 -23 -15 -4 -8 11 -15 14 -15 8 0
-17 -17 -15 -24 3 -4 11 2 15 24 15 25 0 30 -4 30 -22z m35 12 c-3 -5 -11 -10
-16 -10 -6 0 -7 5 -4 10 3 6 11 10 16 10 6 0 7 -4 4 -10z m5632 -12 c-3 -8 -6
-5 -6 6 -1 11 2 17 5 13 3 -3 4 -12 1 -19z m-5633 -34 c11 -28 6 -54 -9 -54
-15 0 -20 -16 -16 -58 1 -15 -2 -21 -9 -17 -13 8 -10 67 5 77 6 5 5 8 -2 8
-24 0 -6 58 18 60 4 0 10 -7 13 -16z m5641 6 c3 -5 1 -10 -4 -10 -6 0 -11 5
-11 10 0 6 2 10 4 10 3 0 8 -4 11 -10z m-5598 -6 c-3 -3 -12 -4 -19 -1 -8 3
-5 6 6 6 11 1 17 -2 13 -5z m2518 -34 c3 -5 2 -10 -4 -10 -5 0 -13 5 -16 10
-3 6 -2 10 4 10 5 0 13 -4 16 -10z m22 -22 c-3 -8 -6 -5 -6 6 -1 11 2 17 5 13
3 -3 4 -12 1 -19z m3608 4 c-3 -3 -11 0 -18 7 -9 10 -8 11 6 5 10 -3 15 -9 12
-12z m-3561 -18 c9 -22 8 -24 -9 -24 -8 0 -15 9 -15 20 0 24 15 27 24 4z
m-2720 -10 c9 -24 7 -27 -9 -10 -17 17 -19 26 -6 26 5 0 12 -7 15 -16z m96
-21 c0 -20 -3 -33 -7 -29 -11 11 -12 66 -2 66 5 0 9 -16 9 -37z m287 -60 c-2
-21 -4 -6 -4 32 0 39 2 55 4 38 2 -18 2 -50 0 -70z m5948 68 c3 -5 1 -12 -5
-16 -5 -3 -10 1 -10 9 0 18 6 21 15 7z m-432 -81 c6 -23 6 -24 -28 -8 -24 11
-25 13 -8 19 28 11 30 11 36 -11z m-3263 -102 c-16 -110 -17 -150 -3 -164 7
-7 13 -22 13 -33 0 -13 6 -21 17 -21 19 0 10 -13 -12 -16 -8 -1 -16 10 -20 27
-4 16 -11 29 -16 29 -5 0 -9 48 -8 108 0 69 3 100 9 87 6 -15 9 -5 10 35 0 41
3 51 11 38 6 -11 6 -41 -1 -90z m-23 50 c-3 -8 -6 -5 -6 6 -1 11 2 17 5 13 3
-3 4 -12 1 -19z m3289 -30 c12 -28 7 -61 -8 -51 -7 4 -9 0 -5 -10 3 -10 2 -17
-3 -17 -13 0 -22 18 -11 24 13 9 1 46 -15 46 -8 0 -11 6 -8 15 9 23 39 18 50
-7z m1054 -12 c0 -3 -4 -8 -10 -11 -5 -3 -10 -1 -10 4 0 6 5 11 10 11 6 0 10
-2 10 -4z m-4565 -41 c1 -13 -3 -21 -7 -19 -4 3 -8 17 -8 31 0 32 15 20 15
-12z m-950 -28 c-1 -21 3 -26 15 -21 53 22 67 11 30 -26 -21 -21 -19 -24 25
-35 17 -4 24 -10 18 -12 -16 -6 -17 -35 -3 -49 8 -8 6 -15 -5 -24 -13 -11 -13
-15 8 -34 19 -17 37 -21 102 -24 103 -3 265 -50 281 -81 6 -11 14 -18 19 -13
4 4 6 0 3 -8 -4 -10 3 -20 18 -27 20 -9 24 -8 25 5 2 25 15 -47 33 -173 38
-268 88 -1035 73 -1097 -10 -40 -27 -35 -27 8 0 39 -14 72 -39 91 -29 23 -34
13 -29 -61 3 -41 1 -81 -4 -90 -6 -10 -5 -16 1 -16 6 0 13 11 17 25 9 37 28
25 32 -20 7 -83 -25 -117 -45 -47 -11 35 -11 34 -6 -18 3 -30 10 -63 15 -72 8
-16 11 -17 32 -3 23 15 35 50 37 104 0 19 7 8 25 -38 39 -101 35 -110 -66
-141 -209 -65 -220 -86 -255 -495 -8 -99 -18 -203 -21 -232 l-6 -51 -52 -7
c-107 -13 -101 -9 -98 -70 l4 -56 -39 6 c-21 3 -83 10 -138 16 -95 10 -134 19
-87 19 34 0 26 17 -14 30 -25 9 -32 15 -23 20 8 6 1 10 -22 12 -54 6 -14 16
94 23 106 7 112 12 80 63 -28 45 -43 52 -117 53 -39 1 -60 4 -46 6 14 3 27 8
30 12 3 4 15 14 28 23 23 15 22 16 -29 14 -61 -1 -72 13 -27 34 l33 15 -35 5
c-31 5 -27 7 40 19 103 18 100 16 100 53 l-1 33 -18 -22 c-19 -23 -38 -32 -26
-13 10 15 -18 12 -43 -6 -12 -8 -22 -10 -22 -5 0 16 -112 14 -135 -3 -24 -15
-211 -31 -219 -17 -3 5 11 12 32 16 l37 8 -49 16 c-48 17 -66 33 -48 45 5 3
37 -4 71 -14 60 -19 106 -27 68 -11 -10 4 28 7 85 6 108 0 209 12 191 23 -17
11 -21 142 -5 142 7 0 25 12 39 27 16 15 29 21 31 15 7 -21 22 -13 22 11 0 15
3 18 8 9 6 -8 22 -10 53 -6 l46 6 2 48 2 48 -44 -10 c-24 -5 -81 -8 -128 -6
-67 2 -84 6 -84 18 0 22 -40 70 -58 70 -9 0 -18 4 -22 9 -3 6 16 13 42 17 27
3 53 11 59 16 7 5 16 8 20 6 21 -5 53 15 63 40 9 22 31 238 31 304 0 13 16 27
53 44 28 13 43 22 32 20 -98 -23 -119 -32 -144 -57 -16 -15 -32 -44 -35 -64
-6 -32 -10 -35 -39 -34 -30 2 -30 2 -4 6 15 2 27 8 27 12 0 9 -56 27 -115 37
l-40 7 30 10 c17 5 46 17 65 25 19 9 42 17 50 19 8 1 29 6 45 9 23 5 35 16 53
54 12 26 22 58 22 71 0 25 25 137 31 143 2 2 19 7 37 11 29 6 32 5 32 -19 0
-13 4 -27 8 -30 5 -3 6 8 4 24 -3 20 1 31 14 38 27 13 170 36 188 29 18 -7
242 47 262 64 17 14 18 94 3 263 -12 140 -27 183 -68 199 -27 10 -31 16 -36
67 -17 165 -24 212 -34 224 -22 26 -246 48 -280 27 -21 -13 -30 -89 -30 -259
-1 -128 -4 -156 -17 -170 -16 -15 -16 1 -11 218 5 261 11 293 59 309 56 20
279 -19 299 -51 7 -10 9 -9 9 4 0 22 -66 42 -192 59 -114 15 -142 9 -165 -34
-17 -29 -18 -66 -15 -447 2 -392 -4 -500 -27 -500 -3 0 -16 -3 -28 -6 -17 -5
-21 -2 -18 13 8 37 13 877 6 859 -7 -19 -8 -19 -13 2 -4 12 -2 52 3 89 13 101
12 113 -9 113 -10 0 -24 -6 -31 -12 -10 -11 -15 -10 -24 3 -7 9 -26 17 -42 17
-57 1 -145 15 -150 23 -5 7 40 16 114 21 19 2 36 9 39 16 2 7 0 12 -5 11 -4
-1 -18 2 -31 6 -18 6 -20 10 -11 21 6 8 20 14 30 14 20 0 26 24 9 35 -5 3 -10
13 -10 20 0 16 25 10 51 -12 15 -12 17 -11 23 12 9 36 41 30 41 -8z m1142 -24
c-3 -10 -5 -4 -5 12 0 17 2 24 5 18 2 -7 2 -21 0 -30z m3323 5 c0 -4 -4 -8 -9
-8 -6 0 -12 4 -15 8 -3 5 1 9 9 9 8 0 15 -4 15 -9z m636 -3 c-1 -8 -5 -17 -8
-21 -5 -4 -4 16 1 34 3 9 9 -1 7 -13z m-606 -9 c0 -3 -4 -8 -10 -11 -5 -3 -10
-1 -10 4 0 6 5 11 10 11 6 0 10 -2 10 -4z m154 -14 c2 -4 -5 -9 -17 -9 -17 -2
-19 0 -7 7 18 12 18 12 24 2z m-234 -32 c0 -5 -2 -10 -4 -10 -3 0 -8 5 -11 10
-3 6 -1 10 4 10 6 0 11 -4 11 -10z m845 0 c3 -5 1 -10 -4 -10 -6 0 -11 5 -11
10 0 6 2 10 4 10 3 0 8 -4 11 -10z m-7375 -25 c0 -22 2 -24 20 -13 26 17 37 3
16 -21 -16 -18 -16 -19 11 -25 21 -6 24 -9 12 -17 -10 -6 -5 -9 18 -9 48 0 49
-18 2 -30 -40 -11 -41 -12 -23 -29 22 -19 81 -36 214 -59 80 -14 172 -17 595
-17 275 0 478 -3 450 -6 -27 -4 92 -5 265 -2 173 3 313 3 310 0 -3 -3 -221
-12 -485 -21 -264 -9 -622 -21 -795 -27 -173 -5 -407 -17 -519 -25 -112 -8
-207 -14 -212 -14 -13 0 -36 -89 -68 -270 -28 -150 -91 -567 -91 -597 0 -7 -8
-13 -17 -14 -10 0 -13 -3 -7 -5 6 -2 10 -17 9 -32 -2 -21 -1 -22 2 -3 4 22 7
23 66 16 34 -3 222 -8 417 -11 195 -2 357 -8 360 -13 3 -4 30 -17 60 -27 l55
-19 -155 -6 c-377 -15 -541 -10 -765 26 -24 4 -26 3 -9 -4 11 -5 67 -17 125
-26 88 -14 178 -17 589 -16 467 2 720 -10 687 -31 -6 -4 34 -8 91 -8 56 0 102
-4 102 -9 0 -4 21 -15 48 -24 26 -9 39 -16 30 -16 -10 -1 -18 -6 -18 -12 0 -7
10 -9 25 -5 14 4 36 4 50 0 20 -5 23 -9 14 -20 -9 -12 -4 -14 30 -14 22 0 41
-4 41 -9 0 -5 -10 -7 -22 -5 -21 4 -21 4 1 -6 14 -6 40 -11 58 -12 21 -1 38
-8 44 -19 13 -25 12 -29 -12 -29 -15 0 -19 5 -15 15 3 8 1 15 -4 15 -6 0 -10
-6 -10 -14 0 -9 -25 -15 -92 -20 -56 -4 -95 -11 -100 -19 -6 -9 -8 -9 -8 1 0
8 -19 12 -60 12 -54 0 -60 -2 -60 -21 0 -20 3 -20 160 -16 143 4 162 6 174 23
8 10 17 16 20 13 9 -9 -4 -37 -20 -43 -8 -3 -164 -8 -348 -12 -295 -6 -338 -5
-359 8 -69 46 -154 46 -207 2 l-30 -26 -433 5 c-237 4 -449 9 -469 13 -34 5
-38 9 -38 36 0 39 -15 67 -56 103 l-33 30 15 90 c9 50 23 106 31 125 8 19 28
123 44 230 44 300 96 574 120 636 5 16 4 24 -7 28 -8 3 -14 12 -14 20 0 29 33
111 60 151 41 59 45 81 19 88 -19 5 -20 8 -9 21 7 9 18 16 25 16 8 0 11 8 8
20 -6 24 9 26 28 4 12 -14 14 -14 21 5 10 29 28 26 28 -4z m7168 0 c-3 -14 -1
-25 4 -25 5 0 7 -4 3 -10 -3 -5 -13 -6 -21 -3 -11 4 -12 9 -5 16 18 18 13 36
-9 30 -11 -3 -20 -1 -20 4 0 5 12 10 26 11 23 2 26 -1 22 -23z m-3728 -1 c0
-8 -4 -12 -10 -9 -5 3 -10 10 -10 16 0 5 5 9 10 9 6 0 10 -7 10 -16z m3308 -3
c2 -6 8 -9 13 -5 5 3 9 1 9 -5 0 -5 -9 -9 -20 -8 -11 1 -20 5 -20 10 0 5 -6 7
-12 4 -47 -19 -48 -19 -43 -5 5 12 -3 14 -43 10 -32 -2 -52 0 -57 8 -6 10 13
11 81 7 50 -3 90 -10 92 -16z m252 9 c0 -5 -5 -10 -11 -10 -5 0 -7 5 -4 10 3
6 8 10 11 10 2 0 4 -4 4 -10z m114 -6 c4 -9 4 -19 2 -21 -9 -10 -46 9 -46 23
0 19 36 18 44 -2z m183 -6 c-3 -8 -6 -5 -6 6 -1 11 2 17 5 13 3 -3 4 -12 1
-19z m93 1 c0 -5 -4 -7 -10 -4 -5 3 -10 1 -10 -5 0 -6 -5 -8 -11 -4 -8 4 -7 9
2 15 19 12 29 11 29 -2z m-530 -42 c8 -14 11 -29 7 -33 -9 -10 -37 15 -37 34
0 8 -8 21 -17 28 -16 13 -15 13 7 5 14 -4 32 -20 40 -34z m-463 11 c-3 -8 -6
-5 -6 6 -1 11 2 17 5 13 3 -3 4 -12 1 -19z m211 2 c-7 -10 -14 -17 -17 -15 -4
4 18 35 25 35 2 0 -1 -9 -8 -20z m-5881 4 c-3 -3 -12 -4 -19 -1 -8 3 -5 6 6 6
11 1 17 -2 13 -5z m5944 -11 c13 -16 12 -17 -3 -4 -10 7 -18 15 -18 17 0 8 8
3 21 -13z m389 7 c0 -5 -4 -10 -9 -10 -5 0 -8 -12 -5 -26 4 -25 4 -25 -12 -9
-12 12 -19 13 -24 5 -5 -8 -13 -5 -24 11 -16 24 -16 24 16 30 51 10 58 10 58
-1z m1165 0 c-3 -5 -12 -10 -18 -10 -7 0 -6 4 3 10 19 12 23 12 15 0z m55 2
c0 -4 -9 -8 -20 -9 -11 -1 -20 2 -20 8 0 5 9 9 20 9 11 0 20 -4 20 -8z m-1380
-12 c0 -5 -4 -10 -10 -10 -5 0 -10 5 -10 10 0 6 5 10 10 10 6 0 10 -4 10 -10z
m201 -3 c-1 -12 -15 -9 -19 4 -3 6 1 10 8 8 6 -3 11 -8 11 -12z m122 -18 c6
-4 7 -15 2 -25 -7 -17 -9 -16 -15 6 -10 31 -12 64 -3 40 3 -8 10 -18 16 -21z
m245 12 c11 -6 10 -10 -4 -15 -9 -3 -19 -4 -22 -1 -3 3 1 5 9 5 11 0 11 2 -1
10 -8 5 -10 10 -5 10 6 0 16 -4 23 -9z m-333 -12 c-4 -6 3 -9 21 -7 36 4 41
-15 10 -35 -22 -15 -27 -15 -40 -2 -18 19 -27 19 -20 1 3 -8 1 -17 -5 -21 -7
-4 -10 1 -8 12 4 27 26 63 38 63 6 0 7 -5 4 -11z m-184 -24 c5 4 6 11 3 17 -4
7 -2 8 5 4 6 -4 9 -12 6 -17 -4 -5 1 -12 9 -15 14 -5 14 -8 -1 -30 -19 -29
-33 -31 -33 -4 0 11 -5 20 -11 20 -5 0 -7 -6 -3 -12 5 -9 2 -9 -9 1 -20 16
-21 27 -4 45 10 12 13 12 20 0 5 -8 13 -12 18 -9z m-587 0 c-7 -16 -24 -21
-24 -6 0 8 7 13 27 20 1 1 0 -6 -3 -14z m476 5 c0 -5 -10 -10 -22 -10 -19 0
-20 2 -8 10 19 13 30 13 30 0z m-390 -10 c0 -5 -5 -10 -11 -10 -5 0 -7 5 -4
10 3 6 8 10 11 10 2 0 4 -4 4 -10z m-3025 -20 c3 -5 1 -10 -4 -10 -6 0 -11 5
-11 10 0 6 2 10 4 10 3 0 8 -4 11 -10z m3428 3 c-7 -2 -19 -2 -25 0 -7 3 -2 5
12 5 14 0 19 -2 13 -5z m733 -32 c-7 -21 9 -46 23 -37 6 4 11 2 11 -3 0 -6 -9
-11 -19 -11 -12 0 -23 11 -30 31 -15 42 -14 49 4 43 9 -4 13 -14 11 -23z
m-4519 -13 c-3 -7 -5 -2 -5 12 0 14 2 19 5 13 2 -7 2 -19 0 -25z m3931 7 c0
-19 -6 -25 -23 -25 l-23 0 21 25 c12 13 23 25 23 25 1 0 2 -11 2 -25z m193
-18 c-7 -17 -18 -27 -30 -27 -11 0 -28 -2 -38 -5 -10 -3 -3 2 15 11 25 14 31
22 26 37 -5 16 -3 19 10 14 9 -4 16 -1 17 6 0 8 2 8 5 1 3 -6 0 -23 -5 -37z
m-651 0 c0 -5 7 -4 15 3 10 8 15 9 15 1 0 -13 -45 -26 -59 -16 -6 3 -15 14
-21 25 -9 17 -7 17 20 7 17 -6 30 -15 30 -20z m820 11 c0 -6 -6 -5 -15 2 -8 7
-15 14 -15 16 0 2 7 1 15 -2 8 -4 15 -11 15 -16z m-750 -3 c0 -8 -7 -15 -15
-15 -9 0 -12 6 -9 15 4 8 10 15 15 15 5 0 9 -7 9 -15z m-114 -22 c-7 -7 -26 7
-26 19 0 6 6 6 15 -2 9 -7 13 -15 11 -17z m1437 12 c-4 -14 -33 -14 -33 0 0 7
8 12 18 11 9 -2 16 -7 15 -11z m41 4 c11 17 56 14 56 -4 0 -8 0 -18 1 -21 0
-4 -18 -17 -40 -31 l-41 -24 0 48 c0 31 3 43 9 34 6 -9 11 -10 15 -2z m-698
-24 c-9 -14 -14 -31 -10 -37 4 -6 3 -8 -3 -5 -13 8 -23 57 -12 57 5 0 9 -6 9
-12 0 -7 5 -5 11 5 5 9 13 17 16 17 3 0 -2 -11 -11 -25z m-333 -3 c18 -16 18
-17 -19 -23 -25 -4 -42 -3 -46 5 -4 6 -3 13 2 14 6 2 8 7 6 11 -10 15 39 9 57
-7z m266 -18 c-10 -12 -14 -12 -20 -2 -6 8 -2 18 9 26 21 16 30 -2 11 -24z
m187 21 c-1 -9 -5 -15 -9 -15 -4 0 -11 0 -15 0 -5 0 -9 7 -9 15 0 8 8 15 18
15 10 0 16 -7 15 -15z m138 9 c9 -3 16 -13 16 -21 0 -9 -6 -13 -15 -9 -8 3
-15 0 -15 -6 0 -7 -4 -7 -13 1 -8 6 -16 9 -19 6 -2 -3 -5 2 -5 10 0 8 4 12 8
9 4 -2 10 0 14 6 7 12 8 12 29 4z m-8710 -177 c4 -87 9 -164 12 -170 4 -10 11
-101 13 -169 1 -30 19 -20 32 17 10 26 19 35 35 35 34 0 40 20 7 21 l-28 1 32
9 c17 5 41 21 52 35 11 14 22 24 25 22 3 -2 12 6 20 17 9 11 16 14 16 8 0 -9
7 -10 27 -2 17 6 36 6 53 0 29 -10 57 0 46 17 -3 5 1 12 9 16 8 3 19 -3 24
-12 6 -10 11 -12 11 -4 0 6 5 12 10 12 6 0 10 -19 10 -43 0 -24 3 -46 6 -50 8
-7 34 17 34 32 0 14 83 14 134 0 21 -6 42 -7 45 -2 3 4 15 9 26 11 16 2 14 -1
-7 -15 l-28 -18 1 -140 c1 -88 4 -127 9 -105 l7 35 3 -40 2 -40 9 34 c6 18 9
87 7 152 -2 66 1 119 6 119 5 0 6 -71 2 -167 -4 -93 -6 -194 -6 -226 1 -32 -4
-74 -10 -93 -7 -19 -9 -43 -5 -52 4 -9 8 -53 9 -97 1 -44 0 -65 -2 -47 -2 17
-7 32 -11 32 -5 0 -6 -11 -4 -24 4 -17 -1 -27 -15 -35 -16 -9 -20 -8 -18 4 1
8 5 17 8 21 4 3 0 24 -8 46 -7 21 -13 49 -11 61 1 14 -3 21 -11 19 -8 -1 -11
2 -8 7 8 13 -4 42 -15 35 -5 -3 -6 2 -3 10 3 9 11 16 16 16 6 0 5 6 -2 15 -14
17 -4 39 15 31 7 -2 15 4 18 15 4 14 0 19 -14 19 -22 0 -23 7 -4 40 21 37 18
56 -11 75 -21 13 -31 15 -50 6 -13 -6 -24 -18 -24 -27 0 -13 -3 -14 -13 -5 -8
6 -17 8 -21 4 -4 -4 -4 0 -1 9 4 9 13 14 21 11 17 -6 19 13 2 20 -10 4 -9 8 2
16 12 8 12 13 -4 30 -13 15 -15 21 -6 21 21 0 5 10 -24 16 -26 4 -37 -10 -13
-19 7 -3 5 -6 -5 -6 -16 -1 -18 9 -18 83 0 76 -2 85 -20 91 -11 4 -18 10 -15
14 2 5 -6 6 -19 4 -13 -3 -26 -1 -30 5 -7 12 -97 4 -111 -10 -6 -6 3 -7 25 -3
29 5 39 2 54 -14 14 -15 31 -21 63 -21 l45 0 -4 -120 c-2 -66 0 -120 4 -120 4
0 2 -15 -3 -32 -13 -48 -12 -178 3 -178 6 0 9 -3 6 -6 -4 -3 -15 -1 -25 4 -10
6 -52 15 -93 21 -266 40 -490 78 -495 83 -10 10 15 514 30 592 7 39 13 62 14
51 2 -33 21 4 21 43 0 22 5 32 15 32 8 0 15 9 15 20 0 28 20 25 21 -2 1 -13 6
-3 11 22 10 43 10 43 23 21 l12 -24 7 28 c14 55 24 7 30 -148z m4442 147 c-4
-9 -9 -15 -11 -12 -3 3 -3 13 1 22 4 9 9 15 11 12 3 -3 3 -13 -1 -22z m3357
-1 c-4 -11 -3 -14 5 -9 8 5 9 1 4 -15 -10 -26 -60 -36 -69 -13 -8 20 5 30 19
16 19 -19 30 -14 28 11 -3 32 -1 39 10 32 5 -3 6 -13 3 -22z m-7128 -157 c-4
-91 -12 -166 -17 -166 -5 0 -6 5 -2 12 4 7 3 8 -5 4 -18 -12 -111 15 -111 32
0 11 -8 13 -34 8 -18 -4 -44 -2 -57 3 -17 7 -19 10 -6 10 9 1 17 8 17 16 0 17
16 20 25 6 3 -6 -3 -15 -12 -21 -16 -10 -15 -11 7 -6 14 3 33 6 43 6 9 0 17 7
17 16 0 23 38 54 67 54 12 0 23 5 23 10 0 6 -7 10 -17 10 -14 0 -14 2 -1 18 8
9 13 30 12 45 -3 27 28 72 40 60 3 -4 6 9 6 27 0 18 3 31 6 27 3 -3 3 -80 -1
-171z m3155 153 c0 -6 -4 -7 -10 -4 -5 3 -10 11 -10 16 0 6 5 7 10 4 6 -3 10
-11 10 -16z m4180 5 c0 -8 -5 -12 -10 -9 -6 4 -8 11 -5 16 9 14 15 11 15 -7z
m222 -6 c-7 -7 -12 -8 -12 -2 0 14 12 26 19 19 2 -3 -1 -11 -7 -17z m316 -32
c-2 -17 -8 -30 -14 -29 -8 2 -10 -6 -6 -20 5 -20 4 -20 -11 -8 -9 7 -15 16
-13 20 4 8 -32 41 -37 33 -2 -4 -2 -1 0 6 1 8 3 20 3 28 0 10 6 11 25 4 14 -5
24 -6 24 -2 -3 19 2 23 17 12 9 -8 14 -25 12 -44z m722 36 c0 -4 -13 -7 -30
-7 -36 0 -37 3 -7 14 22 9 37 6 37 -7z m-1230 -27 c0 -5 -5 -3 -10 5 -5 8 -10
20 -10 25 0 6 5 3 10 -5 5 -8 10 -19 10 -25z m222 -7 c-19 -20 -22 -20 -22 -5
0 24 22 48 35 36 6 -6 1 -17 -13 -31z m839 32 c22 -12 25 -30 5 -30 -8 0 -22
-7 -30 -16 -9 -9 -16 -11 -16 -4 0 6 -4 9 -9 6 -5 -3 -14 0 -20 8 -9 10 -8 16
4 26 10 9 15 9 15 1 0 -6 5 -11 10 -11 6 0 9 3 9 8 -4 24 3 27 32 12z m-120
-17 c13 -16 12 -17 -3 -4 -10 7 -18 15 -18 17 0 8 8 3 21 -13z m-1271 -8 c0
-1 -9 -5 -20 -8 -12 -3 -20 0 -20 8 0 8 8 11 20 8 11 -3 20 -7 20 -8z m420 1
c0 -9 -7 -12 -21 -9 -16 4 -17 8 -7 14 19 13 28 11 28 -5z m566 -12 c-3 -7 3
-15 12 -18 10 -4 18 -15 19 -27 3 -30 -19 -18 -39 22 -21 43 -22 50 -2 42 8
-3 13 -12 10 -19z m242 -7 c17 -16 22 -17 22 -6 0 8 -6 21 -12 29 -7 8 -1 4
15 -9 15 -14 27 -32 26 -40 0 -11 -2 -12 -6 -3 -2 6 -9 12 -14 12 -6 0 -7 -5
-4 -10 3 -6 -15 -2 -42 9 -26 10 -49 26 -51 34 -4 21 35 11 66 -16z m-948 13
c0 -5 -2 -10 -4 -10 -3 0 -8 5 -11 10 -3 6 -1 10 4 10 6 0 11 -4 11 -10z m200
-15 c0 -8 -4 -15 -10 -15 -5 0 -7 7 -4 15 4 8 8 15 10 15 2 0 4 -7 4 -15z m96
6 c-3 -5 1 -12 10 -15 8 -3 12 -2 9 4 -15 24 14 7 46 -26 32 -35 33 -36 9 -30
-14 4 -32 9 -41 11 -43 10 -70 40 -52 58 10 10 25 8 19 -2z m205 -66 c9 -17 8
-18 -3 -5 -7 8 -22 20 -33 26 -11 6 -22 20 -24 30 -3 16 1 15 23 -6 15 -14 31
-34 37 -45z m104 55 c-3 -5 -2 -10 4 -10 6 0 17 -13 26 -30 19 -36 19 -41 0
-34 -8 3 -13 11 -12 16 3 17 -20 20 -35 5 -18 -18 -41 2 -27 24 7 11 9 10 10
-6 0 -11 3 -14 6 -7 2 6 10 9 16 5 7 -4 6 1 -2 11 -13 15 -13 19 0 27 18 11
22 11 14 -1z m525 0 c0 -5 -2 -10 -4 -10 -3 0 -8 5 -11 10 -3 6 -1 10 4 10 6
0 11 -4 11 -10z m-714 -15 c-3 -8 -1 -15 5 -15 6 0 7 -5 3 -11 -4 -7 -11 -6
-21 4 -9 8 -12 20 -9 26 11 17 29 13 22 -4z m447 -17 c6 -4 19 -2 29 3 24 13
82 -16 74 -37 -3 -8 9 -31 29 -53 19 -21 33 -40 31 -42 -2 -2 -6 -16 -10 -31
-5 -22 -3 -26 9 -22 8 4 18 17 21 30 7 27 26 33 22 7 -2 -10 3 -18 11 -18 14
0 44 -82 35 -97 -8 -13 -42 15 -49 40 -5 19 -9 21 -19 12 -11 -8 -15 -8 -19 2
-3 7 -6 1 -6 -14 -1 -22 -5 -27 -22 -25 -12 1 -24 -4 -26 -10 -5 -15 44 -36
59 -27 7 5 8 2 4 -5 -5 -7 -14 -10 -22 -7 -7 3 -16 1 -19 -4 -4 -6 1 -10 9
-10 18 0 37 -60 24 -76 -5 -8 -1 -13 12 -17 21 -5 28 -27 9 -27 -5 0 -7 5 -3
11 5 9 -3 10 -30 5 -29 -6 -36 -4 -36 9 0 8 5 15 11 15 7 0 5 9 -5 24 -8 14
-12 26 -8 29 4 2 1 2 -7 0 -8 -2 -18 2 -23 9 -6 10 -8 8 -8 -4 0 -10 5 -18 11
-18 5 0 7 -5 3 -11 -4 -8 -9 -7 -15 2 -8 12 -10 12 -18 1 -12 -19 -21 6 -14
41 3 17 1 27 -6 27 -9 0 -9 5 0 21 7 15 8 24 0 32 -15 15 -39 -8 -43 -41 -3
-25 -4 -25 -32 16 -23 34 -27 48 -22 77 5 27 11 34 26 32 29 -5 37 -17 11 -17
-12 0 -19 -4 -16 -10 3 -6 18 -7 32 -4 19 5 30 2 40 -11 11 -16 15 -12 12 11
0 4 5 11 13 16 10 8 11 11 0 15 -10 4 -10 8 0 21 11 12 11 16 0 20 -16 5 4 32
24 32 25 0 15 29 -12 36 -18 5 -39 0 -66 -16 l-41 -23 6 39 c4 21 7 48 8 59 0
15 2 16 6 5 3 -8 11 -18 16 -22z m-187 -25 c18 -41 25 -63 18 -63 -5 0 -30 50
-38 78 -11 35 2 26 20 -15z m124 -14 c0 -27 -12 -44 -23 -33 -3 4 -1 15 6 25
9 14 9 21 -1 31 -11 11 -12 10 -7 -3 7 -19 -9 -34 -25 -24 -6 4 -4 16 6 31 13
19 20 22 30 13 8 -6 14 -24 14 -40z m447 31 c-7 -27 1 -25 13 3 9 22 9 22 9 1
1 -26 -23 -38 -38 -20 -7 9 -7 16 1 24 17 17 21 15 15 -8z m-77 -23 c0 -5 -4
-5 -10 -2 -5 3 -10 14 -10 23 0 15 2 15 10 2 5 -8 10 -19 10 -23z m-706 14 c8
-13 -4 -42 -15 -35 -12 7 -12 44 0 44 6 0 12 -4 15 -9z m246 -12 c0 -6 -4 -7
-10 -4 -5 3 -10 11 -10 16 0 6 5 7 10 4 6 -3 10 -11 10 -16z m581 -6 c-12 -20
-14 -14 -5 12 4 9 9 14 11 11 3 -2 0 -13 -6 -23z m39 17 c0 -5 -2 -10 -4 -10
-3 0 -8 5 -11 10 -3 6 -1 10 4 10 6 0 11 -4 11 -10z m-9632 -202 c1 7 6 11 11
7 5 -3 11 3 13 12 2 10 8 -7 13 -37 l10 -55 3 68 c1 37 7 67 11 67 12 0 20
-90 27 -329 7 -207 6 -213 -12 -208 -10 4 -77 15 -148 27 -72 11 -132 23 -135
27 -6 6 70 -3 107 -13 13 -4 22 -2 22 4 0 11 -15 17 -71 26 -36 6 -79 35 -79
52 0 5 14 18 30 29 16 11 30 25 30 31 0 15 39 25 68 17 12 -3 22 -10 22 -17 0
-6 8 2 19 17 15 23 20 56 25 170 4 78 10 180 14 227 l7 85 6 -110 c3 -60 6
-104 7 -97z m4572 182 c0 -5 -5 -10 -11 -10 -5 0 -7 5 -4 10 3 6 8 10 11 10 2
0 4 -4 4 -10z m409 -102 c1 -42 -3 -79 -7 -82 -5 -3 -9 41 -9 97 -1 64 2 95 7
82 5 -11 9 -55 9 -97z m4403 80 c2 -13 10 -23 19 -23 19 0 49 -23 49 -37 0
-19 -29 -19 -49 1 -12 12 -18 21 -15 21 3 0 -4 8 -16 18 -13 11 -20 24 -16 30
11 19 24 14 28 -10z m57 -10 c17 -18 28 -34 26 -36 -5 -5 -65 53 -65 62 0 12
10 5 39 -26z m71 15 c0 -3 -7 -3 -15 1 -21 8 -19 -11 3 -23 9 -6 12 -11 6 -11
-16 0 -37 27 -30 39 6 10 36 4 36 -6z m164 1 c3 -8 2 -12 -4 -9 -6 3 -10 10
-10 16 0 14 7 11 14 -7z m-979 -4 c3 -5 2 -10 -4 -10 -5 0 -13 5 -16 10 -3 6
-2 10 4 10 5 0 13 -4 16 -10z m-7810 -15 c0 -5 -18 -11 -41 -13 -32 -2 -41 0
-41 13 0 13 9 15 41 13 23 -2 41 -7 41 -13z m8053 -15 c17 -11 32 -22 32 -25
0 -3 -15 2 -32 12 -18 9 -36 16 -40 15 -5 -1 -8 3 -8 8 0 15 11 12 48 -10z
m245 -21 c-3 -10 -12 -19 -20 -19 -12 0 -13 3 -4 14 9 11 9 16 0 21 -8 6 -8
10 2 16 17 10 28 -7 22 -32z m-319 10 c-8 -14 -21 -11 -21 5 0 8 6 12 14 9 7
-3 10 -9 7 -14z m176 -11 c0 -5 -8 -8 -17 -7 -10 0 -13 3 -6 5 7 3 9 13 6 22
-4 15 -3 15 6 2 6 -8 11 -18 11 -22z m510 7 c14 -19 14 -19 -2 -6 -10 7 -18
18 -18 24 0 6 1 8 3 6 1 -2 9 -13 17 -24z m-476 -1 c5 -14 4 -15 -9 -4 -17 14
-19 20 -6 20 5 0 12 -7 15 -16z m-8396 -29 c-3 -3 -9 2 -12 12 -6 14 -5 15 5
6 7 -7 10 -15 7 -18z m162 0 c0 -8 -4 -15 -10 -15 -5 0 -10 7 -10 15 0 8 5 15
10 15 6 0 10 -7 10 -15z m8109 -15 c6 0 11 -4 11 -10 0 -5 -5 -10 -11 -10 -13
0 -38 30 -38 45 0 6 6 2 13 -7 7 -10 18 -18 25 -18z m556 20 c3 -6 -1 -7 -9
-4 -18 7 -21 14 -7 14 6 0 13 -4 16 -10z m85 6 c0 -2 -7 -7 -16 -10 -8 -3 -12
-2 -9 4 6 10 25 14 25 6z m-9563 -28 c-3 -8 -6 -5 -6 6 -1 11 2 17 5 13 3 -3
4 -12 1 -19z m-2006 -118 l-8 -75 -2 66 c-1 72 11 156 17 109 1 -14 -2 -59 -7
-100z m11044 110 c3 -5 -1 -10 -9 -10 -9 0 -16 5 -16 10 0 6 4 10 9 10 6 0 13
-4 16 -10z m-437 -12 c9 -9 7 -14 -6 -24 -25 -19 -30 -17 -24 11 5 28 12 31
30 13z m142 -8 c0 -11 -7 -20 -15 -20 -27 0 -18 30 13 39 1 1 2 -8 2 -19z
m820 10 c0 -5 -8 -10 -17 -10 -15 0 -16 2 -3 10 19 12 20 12 20 0z m-735 -13
c12 -7 21 -24 22 -41 2 -29 2 -29 -13 -8 -10 14 -26 22 -45 22 -32 0 -38 14
-11 29 21 13 23 13 47 -2z m201 -14 c-3 -8 -6 -17 -6 -21 0 -8 -29 31 -30 40
0 3 9 4 21 1 12 -4 18 -11 15 -20z m451 -5 c-3 -7 -5 -2 -5 12 0 14 2 19 5 13
2 -7 2 -19 0 -25z m197 18 c-3 -8 -13 -17 -22 -21 -13 -5 -13 -2 3 15 21 24
26 25 19 6z m-706 -15 c3 -8 -1 -12 -9 -9 -7 2 -15 10 -17 17 -3 8 1 12 9 9 7
-2 15 -10 17 -17z m652 15 c0 -3 -4 -8 -10 -11 -5 -3 -10 -1 -10 4 0 6 5 11
10 11 6 0 10 -2 10 -4z m-557 -35 c3 -11 -1 -25 -8 -31 -10 -9 -13 -3 -12 24
1 37 11 40 20 7z m487 21 c0 -14 -11 -21 -26 -15 -8 3 -11 9 -8 14 7 11 34 12
34 1z m-4575 -21 c-3 -11 0 -25 8 -33 11 -10 12 -18 4 -35 -14 -32 -25 -29
-22 6 2 24 -1 28 -19 24 -19 -4 -19 -3 -3 7 9 6 17 20 17 30 0 11 5 20 11 20
6 0 8 -8 4 -19z m-4215 -1 c8 -5 11 -10 5 -10 -5 0 -17 5 -25 10 -8 5 -10 10
-5 10 6 0 17 -5 25 -10z m8795 -21 c-9 -17 -19 -28 -22 -25 -6 6 23 56 32 56
3 0 -2 -14 -10 -31z m36 8 c-10 -9 -11 -8 -5 6 3 10 9 15 12 12 3 -3 0 -11 -7
-18z m-781 3 c16 -10 13 -16 -10 -22 -15 -3 -20 2 -20 22 0 12 10 13 30 0z
m-47 -33 c-3 -5 -17 -6 -32 -3 -24 6 -25 5 -8 -8 10 -8 28 -11 40 -8 12 3 19
2 16 -2 -7 -7 -44 -14 -84 -15 -17 -1 -17 -3 -5 -11 8 -5 23 -7 33 -4 9 3 17
1 17 -5 0 -15 -53 -14 -67 0 -15 15 34 82 53 75 7 -3 16 0 20 6 4 7 9 6 15 -3
4 -7 5 -17 2 -22z m127 7 c0 -8 6 -14 13 -14 8 0 7 -3 -3 -10 -20 -12 -43 10
-34 33 7 19 24 13 24 -9z m76 -5 c8 -14 -10 -11 -32 6 -18 13 -18 14 4 8 12
-3 25 -9 28 -14z m-307 -25 c-14 -13 -15 -13 -13 8 1 13 3 25 3 28 1 2 6 -1
13 -8 10 -10 9 -16 -3 -28z m427 -2 c-10 -10 -29 15 -21 28 6 9 10 8 17 -4 6
-10 7 -20 4 -24z m-776 19 c0 -6 -4 -13 -10 -16 -5 -3 -10 1 -10 9 0 9 5 16
10 16 6 0 10 -4 10 -9z m1047 3 c-3 -3 -12 -4 -19 -1 -8 3 -5 6 6 6 11 1 17
-2 13 -5z m263 -8 c0 -2 -7 -7 -16 -10 -8 -3 -12 -2 -9 4 6 10 25 14 25 6z
m78 -14 c2 -7 -7 -12 -22 -12 -30 0 -44 17 -19 23 24 6 36 3 41 -11z m-4815
-21 c9 -16 17 -37 17 -48 0 -11 3 -14 8 -6 4 6 8 -30 8 -80 2 -106 20 -433 22
-399 4 44 18 21 35 -55 10 -43 17 -86 17 -96 0 -20 -39 -76 -41 -61 -4 19 -6
52 -8 114 -1 36 -5 59 -8 53 -2 -7 -9 -13 -14 -13 -6 0 -8 3 -6 8 3 4 -3 48
-14 97 -18 84 -45 327 -51 458 -3 64 8 73 35 28z m4067 9 c-6 -11 -12 -20 -14
-20 -3 0 -1 23 3 38 1 1 6 2 11 2 7 0 7 -6 0 -20z m47 14 c-3 -3 -12 -4 -19
-1 -8 3 -5 6 6 6 11 1 17 -2 13 -5z m416 -25 c-10 -3 -21 -1 -25 5 -14 21 -8
26 18 14 23 -11 24 -13 7 -19z m-5106 -101 c-2 -24 -4 -5 -4 42 0 47 2 66 4
43 2 -24 2 -62 0 -85z m746 75 c4 -21 9 -87 12 -148 4 -60 8 -120 10 -131 2
-12 -3 -66 -11 -120 -7 -55 -14 -153 -14 -219 0 -66 -4 -114 -8 -107 -13 19
-15 585 -2 577 6 -4 10 6 10 24 0 17 -4 31 -9 31 -13 0 -23 67 -16 101 9 40
21 36 28 -8z m105 -51 c-5 -2 -8 -8 -8 -13 0 -6 5 -7 12 -3 7 4 8 3 4 -5 -4
-6 -12 -9 -17 -6 -11 7 -12 40 -2 86 l8 34 5 -45 c3 -25 2 -46 -2 -48z m3257
77 c11 -17 -1 -21 -15 -4 -8 9 -8 15 -2 15 6 0 14 -5 17 -11z m588 -6 c-3 -7
0 -13 7 -13 6 0 10 -10 9 -22 -2 -13 2 -33 9 -45 16 -30 16 -59 0 -46 -19 15
-68 25 -68 14 0 -5 5 -13 10 -16 6 -3 10 -12 9 -18 0 -9 -2 -8 -6 1 -2 6 -8
10 -12 8 -4 -3 -8 7 -9 21 -2 26 -21 67 -22 46 0 -13 -40 -5 -40 8 0 8 23 13
43 10 4 -1 10 6 13 14 4 8 10 15 16 15 5 0 6 -5 2 -12 -4 -6 -3 -8 4 -5 5 4 9
17 8 30 -2 16 2 23 14 23 10 0 16 -6 13 -13z m101 -23 c7 0 13 -7 13 -15 0 -8
-2 -15 -5 -15 -8 0 -31 34 -31 45 0 6 3 4 6 -2 2 -7 10 -13 17 -13z m336 -2
c0 -16 -3 -19 -11 -11 -6 6 -8 16 -5 22 11 17 16 13 16 -11z m158 10 c9 -9 12
-9 12 0 0 8 13 12 38 10 23 -2 39 -8 39 -16 0 -6 -7 -11 -15 -10 -9 2 -16 -7
-18 -26 -1 -16 -12 -38 -23 -50 -12 -12 -21 -28 -21 -34 0 -22 -29 -12 -33 11
-3 21 -4 21 -13 2 -6 -13 -20 -21 -41 -22 -27 -2 -30 0 -26 17 3 11 14 20 24
20 11 0 19 4 19 10 0 5 8 6 18 3 15 -6 16 -5 2 13 -11 15 -11 16 0 7 8 -7 24
-13 37 -13 18 0 23 6 23 25 0 17 -6 26 -17 27 -10 0 -22 2 -28 3 -5 2 -16 3
-24 4 -11 1 -11 4 -1 16 15 18 32 19 48 3z m-948 -8 c0 -5 -4 -10 -10 -10 -5
0 -10 5 -10 10 0 6 5 10 10 10 6 0 10 -4 10 -10z m520 -32 c0 -4 -10 -13 -22
-19 -20 -11 -21 -10 -11 2 7 8 10 26 7 40 -5 23 -5 23 10 5 9 -11 16 -23 16
-28z m181 25 c13 -16 12 -17 -3 -5 -9 8 -22 11 -28 7 -5 -3 -10 -1 -10 4 0 17
26 13 41 -6z m-649 0 c-6 -3 -9 -10 -5 -16 4 -7 -1 -6 -10 2 -21 17 -21 17 6
18 12 0 16 -1 9 -4z m-291 -16 c-6 -8 -8 -17 -4 -20 3 -4 1 -7 -5 -7 -15 0
-15 13 0 28 16 16 23 15 9 -1z m391 -13 c30 -15 32 -15 46 2 13 18 14 18 10
-1 -3 -22 -38 -32 -66 -19 -9 4 -20 7 -23 6 -3 0 -6 6 -6 14 0 18 1 18 39 -2z
m548 1 c0 -12 -19 -12 -23 0 -4 9 -1 12 9 8 7 -3 14 -7 14 -8z m-4390 1 c0 -3
-4 -8 -10 -11 -5 -3 -10 -1 -10 4 0 6 5 11 10 11 6 0 10 -2 10 -4z m137 -28
c-3 -7 -5 -2 -5 12 0 14 2 19 5 13 2 -7 2 -19 0 -25z m3276 2 c3 -11 1 -20 -4
-20 -11 0 -30 36 -22 43 9 10 20 0 26 -23z m822 0 c3 -5 1 -10 -4 -10 -6 0
-11 5 -11 10 0 6 2 10 4 10 3 0 8 -4 11 -10z m44 -9 c8 -14 7 -20 -4 -25 -11
-4 -15 2 -15 19 0 30 6 32 19 6z m-835 -6 c-4 -8 -8 -15 -10 -15 -2 0 -4 7 -4
15 0 8 4 15 10 15 5 0 7 -7 4 -15z m506 0 c0 -8 -4 -15 -10 -15 -5 0 -10 7
-10 15 0 8 5 15 10 15 6 0 10 -7 10 -15z m536 -5 c0 -11 -4 -20 -8 -20 -10 0
-11 24 -1 33 9 9 9 10 9 -13z m84 10 c0 -5 -5 -10 -11 -10 -5 0 -7 5 -4 10 3
6 8 10 11 10 2 0 4 -4 4 -10z m-1349 -16 c11 -14 10 -19 -11 -36 l-25 -20 -6
23 c-11 46 14 66 42 33z m-3213 -14 c28 -45 60 -345 43 -405 -7 -28 -9 -25
-24 40 -33 144 -47 239 -47 311 0 77 6 88 28 54z m193 -25 c-4 -17 -6 -18 -9
-2 -2 9 -7 17 -12 17 -4 0 -10 6 -13 14 -4 11 -1 11 17 3 17 -8 21 -17 17 -32z
m3124 26 c-3 -6 -11 -11 -17 -11 -6 0 -6 6 2 15 14 17 26 13 15 -4z m390 7 c2
-2 -3 -8 -9 -14 -10 -9 -15 -7 -24 7 -10 15 -8 17 10 14 11 -3 22 -6 23 -7z
m50 -26 c-6 -15 -8 -15 -15 3 -4 12 -3 23 4 27 14 9 20 -7 11 -30z m-985 6 c0
-13 -23 -5 -28 10 -2 7 2 10 12 6 9 -3 16 -11 16 -16z m596 -4 c-21 -20 -28
-17 -16 6 6 11 15 18 21 15 5 -4 3 -12 -5 -21z m84 6 c0 -5 8 -7 18 -4 15 5
15 4 1 -5 -8 -5 -26 -7 -38 -4 -17 4 -19 8 -9 14 17 11 28 11 28 -1z m-960
-30 c0 -6 -9 -5 -20 2 -11 7 -20 16 -20 21 0 4 9 3 20 -3 11 -6 20 -15 20 -20z
m1645 -2 c-3 -17 0 -38 6 -45 8 -9 8 -13 0 -13 -6 0 -11 4 -11 9 0 5 -8 11
-17 13 -15 3 -15 4 0 20 10 9 17 21 16 25 -2 12 0 23 5 23 3 0 3 -14 1 -32z
m244 -2 c0 -19 -1 -20 -8 -2 -7 18 -8 18 -25 1 -17 -17 -18 -17 -36 1 -19 19
-18 19 25 20 39 1 45 -2 44 -20z m55 18 c9 -3 13 -10 10 -15 -8 -14 -21 -11
-28 6 -6 17 -4 18 18 9z m-11330 -34 c8 0 20 -7 27 -17 13 -15 11 -16 -15 -11
-22 5 -30 2 -33 -13 -8 -29 -20 -23 -26 14 -6 45 1 61 20 42 8 -8 20 -15 27
-15z m1526 -25 c0 -39 -4 -54 -12 -52 -18 3 -25 25 -19 61 4 30 5 31 12 6 6
-23 7 -23 8 8 2 54 11 35 11 -23z m9360 44 c0 -6 9 -9 20 -6 11 3 18 1 14 -4
-3 -5 0 -9 5 -9 6 0 11 5 11 12 0 6 3 8 6 5 4 -4 2 -13 -5 -21 -10 -12 -16
-12 -41 1 -29 14 -40 33 -20 33 6 0 10 -5 10 -11z m490 2 c0 -5 -7 -14 -15
-21 -16 -14 -18 -10 -9 14 6 17 24 22 24 7z m-9964 -47 c23 -49 5 -68 -32 -33
-14 13 -27 23 -30 22 -2 -2 -4 0 -4 5 0 4 5 8 10 8 6 1 15 2 20 3 6 0 10 8 10
16 0 24 8 18 26 -21z m9417 30 c6 -6 -16 -34 -27 -34 -2 0 -4 9 -3 20 1 19 17
27 30 14z m238 -26 c11 -21 11 -22 -4 -9 -10 7 -17 17 -17 22 0 15 9 10 21
-13z m-3961 -231 c5 -111 10 -226 10 -254 l0 -53 -35 17 -35 17 2 245 c0 135
3 231 5 214 2 -18 9 -33 15 -33 6 0 8 10 4 23 -3 12 -2 33 1 47 l6 24 9 -23
c4 -13 12 -114 18 -224z m4213 199 c-4 -26 -9 -33 -14 -24 -12 18 -11 60 1 53
6 -3 10 -1 10 6 0 7 2 10 5 8 2 -3 2 -22 -2 -43z m102 10 c-2 -32 -28 -86 -41
-86 -8 0 1 37 21 83 19 46 23 46 20 3z m-10792 2 c26 -10 27 -13 27 -84 0 -66
-9 -90 -24 -65 -3 5 -21 12 -40 15 -47 9 -106 -19 -106 -51 0 -27 5 -27 85 -8
33 8 66 14 73 15 9 0 12 -37 12 -155 0 -85 -4 -155 -9 -155 -5 0 -14 7 -21 15
-10 12 -16 13 -27 3 -12 -10 -14 -8 -11 8 2 14 -2 18 -17 16 -15 -2 -17 -1 -6
6 14 10 3 43 -15 44 -5 0 -20 9 -33 19 -19 15 -22 25 -18 49 4 17 2 30 -3 30
-6 0 -10 -7 -10 -15 0 -8 -7 -15 -16 -15 -14 0 -15 8 -9 57 4 31 9 62 12 70 3
7 0 13 -6 13 -11 0 -16 -15 -28 -91 l-8 -46 -70 34 c-38 18 -65 33 -60 34 6 0
1 5 -10 10 -15 7 -13 8 12 3 40 -7 125 16 97 27 -11 3 -26 3 -35 -2 -9 -5 -41
-6 -70 -3 -40 4 -50 3 -39 -5 10 -7 11 -11 3 -11 -7 0 -17 9 -24 21 -7 14 -17
19 -30 16 -10 -3 -18 -2 -17 2 1 3 -2 14 -6 24 -6 13 -20 17 -56 17 -44 0 -50
3 -64 32 -19 36 -20 41 -6 33 6 -3 7 1 4 9 -3 9 -13 16 -21 16 -11 0 -14 6 -9
23 3 12 6 25 6 30 0 11 68 9 75 -3 3 -5 1 -10 -4 -10 -6 0 -11 -6 -11 -14 0
-21 71 -24 145 -7 33 7 86 15 117 18 31 3 62 10 67 17 8 10 3 11 -22 8 -43 -6
-31 5 19 17 45 10 167 4 207 -11z m10884 4 c-22 -24 -21 -33 1 -25 15 6 15 5
4 -10 -13 -15 -16 -15 -29 -1 -14 13 -13 17 2 34 10 11 23 20 28 20 6 0 3 -8
-6 -18z m-9960 -39 c-3 -10 -5 -2 -5 17 0 19 2 27 5 18 2 -10 2 -26 0 -35z
m9423 33 c0 -15 -18 -31 -26 -23 -7 7 7 37 17 37 5 0 9 -6 9 -14z m299 -10
c-7 -14 -17 -22 -25 -19 -10 4 -11 9 -1 24 18 29 39 25 26 -5z m81 3 c0 -6 -4
-7 -10 -4 -5 3 -10 11 -10 16 0 6 5 7 10 4 6 -3 10 -11 10 -16z m-10569 -9
c52 -11 108 -20 126 -20 40 0 51 -19 54 -88 1 -28 7 -50 12 -49 17 3 12 -133
-6 -196 -9 -32 -17 -71 -17 -87 0 -28 -2 -30 -41 -30 -27 0 -46 -6 -54 -16
-10 -15 -17 -9 -49 45 -21 33 -39 61 -40 61 -1 0 -4 -26 -5 -57 -3 -68 -10
-86 -31 -73 -12 7 -15 33 -16 117 -1 143 -2 155 -13 149 -5 -3 -7 -24 -4 -45
3 -22 2 -69 -2 -105 -5 -50 -10 -66 -22 -66 -14 0 -15 11 -9 77 3 42 6 108 6
146 l0 70 23 -20 c28 -26 87 -21 87 8 0 26 -37 44 -64 31 -42 -19 -51 -1 -48
87 2 45 7 81 11 81 4 0 50 -9 102 -20z m10034 10 c3 -5 -1 -10 -9 -10 -9 0
-16 5 -16 10 0 6 4 10 9 10 6 0 13 -4 16 -10z m62 -10 c1 -11 -4 -20 -12 -20
-17 0 -28 17 -20 30 11 17 31 11 32 -10z m-9300 -22 c-3 -7 -5 -2 -5 12 0 14
2 19 5 13 2 -7 2 -19 0 -25z m9348 11 c-6 -17 -3 -20 17 -17 16 2 29 -5 41
-22 18 -24 19 -24 14 -2 -3 12 -1 20 4 16 5 -3 9 0 9 5 0 6 12 11 26 11 22 0
24 -3 15 -14 -10 -12 -8 -17 9 -26 12 -6 19 -14 16 -17 -3 -4 -15 2 -26 12
-11 10 -20 14 -20 9 0 -5 -11 -14 -25 -21 -14 -6 -25 -7 -25 -2 0 5 -7 9 -16
9 -8 0 -12 5 -9 10 4 6 12 7 18 4 9 -5 9 -3 0 6 -10 10 -15 11 -27 1 -20 -17
-51 24 -33 45 17 19 19 17 12 -7z m-9572 4 c-7 -2 -19 -2 -25 0 -7 3 -2 5 12
5 14 0 19 -2 13 -5z m9737 -18 c0 -8 -4 -15 -10 -15 -5 0 -10 7 -10 15 0 8 5
15 10 15 6 0 10 -7 10 -15z m230 -39 c-12 -20 -26 -36 -31 -36 -5 0 4 18 19
39 33 48 42 45 12 -3z m110 9 c-13 -14 -27 -25 -32 -25 -13 0 15 39 32 44 8 2
17 4 19 5 3 0 -6 -10 -19 -24z m-11417 -23 c19 -22 28 -50 18 -56 -4 -3 -26 0
-49 6 -40 10 -42 12 -42 49 0 38 0 38 29 28 16 -6 36 -18 44 -27z m10891 29
c3 -5 -1 -11 -9 -14 -9 -4 -12 -1 -8 9 6 16 10 17 17 5z m314 -36 c0 -25 -1
-45 -3 -45 -2 0 -12 15 -23 34 l-20 34 21 10 c12 6 22 11 23 11 0 1 1 -19 2
-44z m262 -11 c0 -6 -10 -9 -24 -7 -21 4 -22 7 -12 29 10 22 12 22 24 7 6 -9
12 -22 12 -29z m-8395 16 c3 -5 -3 -10 -14 -10 -11 0 -23 5 -26 10 -3 6 3 10
14 10 11 0 23 -4 26 -10z m8152 -27 c-3 -10 -5 -4 -5 12 0 17 2 24 5 18 2 -7
2 -21 0 -30z m-312 17 c3 -6 -1 -7 -9 -4 -18 7 -21 14 -7 14 6 0 13 -4 16 -10z
m130 -8 c-3 -3 -11 0 -18 7 -9 10 -8 11 6 5 10 -3 15 -9 12 -12z m-9678 -8
c-3 -3 -12 -4 -19 -1 -8 3 -5 6 6 6 11 1 17 -2 13 -5z m181 -42 c2 -12 7 -20
12 -17 5 3 12 1 15 -5 4 -6 3 -10 -2 -8 -26 6 -72 -18 -102 -55 l-33 -42 7 70
c4 39 11 75 16 81 5 6 24 8 46 5 29 -5 39 -11 41 -29z m9379 18 c3 -11 9 -17
14 -14 5 3 9 0 9 -5 0 -19 -17 -12 -34 14 -10 15 -12 25 -5 25 6 0 13 -9 16
-20z m177 5 c-6 -16 -24 -21 -24 -7 0 11 11 22 21 22 5 0 6 -7 3 -15z m256 0
c-7 -9 -15 -13 -19 -10 -3 3 1 10 9 15 21 14 24 12 10 -5z m-9947 -12 c-3 -7
-9 -13 -13 -13 -5 0 -12 -9 -15 -20 -5 -17 -14 -20 -58 -18 -46 1 -48 2 -12 5
22 2 47 6 55 9 13 4 13 6 0 14 -8 6 -26 10 -40 11 -23 1 -22 2 5 8 17 4 33 2
37 -3 4 -6 9 -4 13 5 3 9 12 16 19 16 8 0 12 -6 9 -14z m-803 -3 c3 -1 -24 -8
-59 -16 -36 -7 -67 -11 -70 -9 -2 3 10 8 27 11 18 4 29 10 27 15 -5 6 56 6 75
-1z m1040 0 c0 -5 -12 -10 -27 -9 -25 0 -26 1 -8 9 27 12 35 12 35 0z m4587
-825 c0 -174 -2 -200 -7 -125 -4 52 -7 291 -7 530 l1 435 7 -310 c3 -170 6
-409 6 -530z m5046 820 c-3 -9 -8 -14 -10 -11 -3 3 -2 9 2 15 9 16 15 13 8 -4z
m-11296 -11 c19 -5 22 -9 11 -16 -9 -6 -6 -7 10 -3 39 11 247 -65 240 -87 -6
-16 -59 -30 -72 -19 -6 5 -28 12 -50 15 -45 9 -76 26 -76 43 0 6 -5 15 -12 19
-7 4 -8 3 -4 -4 4 -7 1 -12 -8 -12 -9 0 -16 -6 -16 -12 0 -7 -5 -5 -11 5 -5 9
-18 17 -27 17 -25 0 -42 20 -42 48 0 18 4 23 16 18 9 -3 27 -9 41 -12z m1829
5 c3 -5 16 -6 30 -3 13 3 32 3 41 -1 10 -4 30 -7 44 -6 19 2 28 -3 32 -19 9
-36 -5 -251 -17 -255 -6 -2 -85 -5 -176 -7 l-165 -4 85 16 85 16 -64 7 c-35 4
-99 7 -141 7 -72 0 -79 -2 -94 -25 l-16 -25 36 0 c49 0 41 -6 -20 -15 -47 -6
-49 -6 -35 11 7 10 10 15 4 12 -6 -4 -8 21 -5 72 5 71 8 82 38 114 18 20 42
36 53 36 11 0 18 3 16 8 -3 4 16 5 43 4 32 -3 58 2 76 13 16 9 21 14 12 11
-17 -5 -33 19 -23 35 7 11 154 9 161 -2z m9052 -14 c-3 -3 -9 2 -12 12 -6 14
-5 15 5 6 7 -7 10 -15 7 -18z m-10733 -6 c15 -14 -7 -10 -35 7 l-25 15 25 -7
c14 -3 29 -10 35 -15z m600 11 c3 -5 -1 -10 -9 -10 -9 0 -16 5 -16 10 0 6 4
10 9 10 6 0 13 -4 16 -10z m10175 -11 c0 -5 -7 -9 -15 -9 -9 0 -12 6 -9 15 6
15 24 11 24 -6z m170 0 c0 -9 -9 -19 -20 -22 -11 -3 -20 -1 -20 3 0 5 -3 15
-6 23 -4 11 1 15 20 13 17 0 26 -7 26 -17z m-5070 -3 c0 -2 -7 -6 -15 -10 -8
-3 -15 -1 -15 4 0 6 7 10 15 10 8 0 15 -2 15 -4z m5006 -24 c14 -38 8 -55 -17
-42 -28 16 -44 50 -28 61 23 15 34 10 45 -19z m328 20 c2 -4 1 -14 -3 -21 -6
-9 -10 -10 -15 -2 -5 8 -14 4 -26 -11 -24 -29 -26 -15 -2 17 17 25 37 32 46
17z m-9309 -12 c-4 -6 19 -10 62 -10 38 -1 79 -7 93 -14 15 -9 31 -11 40 -6 8
4 38 4 65 0 28 -5 68 -11 90 -14 180 -26 205 -31 205 -42 0 -6 -7 -14 -15 -18
-9 -3 -15 -19 -15 -41 0 -26 3 -34 12 -29 7 4 2 -9 -10 -29 -21 -36 -18 -49 6
-25 14 14 16 5 3 -20 -5 -9 -13 -26 -17 -37 -6 -16 -9 -11 -18 27 -15 62 -26
71 -26 19 0 -31 3 -40 13 -35 8 6 8 3 -1 -9 -12 -14 -44 -16 -278 -16 l-264 1
0 91 c0 126 4 137 47 137 43 0 40 19 -5 39 -39 18 -42 41 -6 41 14 0 23 -4 19
-10z m665 -11 c0 -6 -4 -7 -10 -4 -5 3 -10 11 -10 16 0 6 5 7 10 4 6 -3 10
-11 10 -16z m8120 1 c0 -5 -4 -10 -10 -10 -5 0 -10 5 -10 10 0 6 5 10 10 10 6
0 10 -4 10 -10z m-9500 -11 c12 -8 10 -9 -9 -4 -16 5 -21 4 -17 -4 4 -6 -12
-30 -35 -53 -23 -24 -39 -37 -35 -30 4 6 2 12 -3 12 -6 0 -11 -4 -11 -9 0 -5
-16 -5 -37 -1 -20 5 -41 7 -45 4 -4 -3 -8 2 -8 10 0 9 -16 22 -35 30 -19 8
-35 16 -35 18 0 2 46 4 103 6 66 2 109 8 122 17 25 17 26 17 45 4z m95 5 c-6
-2 -9 -48 -8 -117 1 -61 0 -105 -3 -95 -5 16 -44 38 -91 53 -17 5 -23 14 -23
36 0 16 -4 29 -10 29 -20 0 -9 15 27 40 20 14 41 30 47 36 6 6 18 13 26 17 17
6 50 8 35 1z m1245 -4 c0 -5 5 -9 11 -7 22 4 19 -20 -4 -30 -19 -9 -26 -8 -35
7 -8 13 -8 20 1 29 14 14 27 14 27 1z m8293 -43 c-2 -4 -32 -26 -66 -48 -34
-23 -71 -50 -82 -59 -20 -17 -65 -33 -65 -23 0 18 37 63 52 63 10 0 18 7 18
15 0 8 5 15 10 15 6 0 10 5 10 10 0 7 -7 7 -20 0 -19 -10 -20 -10 -8 9 8 13
19 19 30 15 10 -3 18 -1 18 4 0 14 32 25 39 14 3 -5 17 -13 31 -17 23 -7 24
-6 11 9 -13 15 -13 19 0 26 10 7 16 4 20 -8 4 -9 5 -20 2 -25z m-9927 -22 c-3
-8 -10 -15 -15 -15 -5 0 -4 11 2 25 12 25 23 16 13 -10z m-1029 19 c-3 -3 -12
-4 -19 -1 -8 3 -5 6 6 6 11 1 17 -2 13 -5z m10778 -4 c3 -5 1 -10 -4 -10 -6 0
-11 5 -11 10 0 6 2 10 4 10 3 0 8 -4 11 -10z m-7497 -17 c-16 -2 -40 -2 -55 0
-16 2 -3 4 27 4 30 0 43 -2 28 -4z m110 0 c-10 -2 -26 -2 -35 0 -10 3 -2 5 17
5 19 0 27 -2 18 -5z m-3088 -29 c0 -14 -4 -23 -10 -19 -5 3 -10 15 -10 26 0
10 5 19 10 19 6 0 10 -12 10 -26z m770 16 c0 -5 -7 -7 -15 -4 -8 4 -15 8 -15
10 0 2 7 4 15 4 8 0 15 -4 15 -10z m-993 -26 c-9 -9 -28 6 -21 18 4 6 10 6 17
-1 6 -6 8 -13 4 -17z m173 16 c0 -5 -5 -10 -11 -10 -5 0 -7 5 -4 10 3 6 8 10
11 10 2 0 4 -4 4 -10z m135 -18 c-6 -6 -65 -13 -65 -8 0 26 13 33 40 23 16 -6
27 -13 25 -15z m2326 -2 c19 -16 40 -28 47 -25 6 2 12 -2 12 -9 0 -17 -32 -14
-38 4 -3 9 -6 9 -12 1 -11 -18 -42 -1 -37 20 3 11 1 19 -4 19 -5 0 -9 5 -9 10
0 15 4 13 41 -20z m-2581 16 c0 -11 -19 -15 -25 -6 -3 5 1 10 9 10 9 0 16 -2
16 -4z m1117 -38 c-3 -8 -6 -5 -6 6 -1 11 2 17 5 13 3 -3 4 -12 1 -19z m5542
-40 c7 -35 15 -72 17 -83 4 -16 0 -21 -15 -21 -18 0 -21 7 -22 41 -1 22 -3 59
-4 83 -5 62 9 51 24 -20z m-6724 42 c-3 -5 -11 -10 -16 -10 -6 0 -7 5 -4 10 3
6 11 10 16 10 6 0 7 -4 4 -10z m305 -15 c0 -9 -6 -12 -15 -9 -8 4 -15 10 -15
15 0 5 7 9 15 9 8 0 15 -7 15 -15z m2349 -78 c8 -8 14 -8 23 1 9 9 8 12 -6 12
-15 0 -16 2 -2 15 22 22 36 18 36 -9 0 -15 -7 -27 -17 -30 -26 -8 -58 0 -55
13 1 6 -5 11 -13 11 -8 0 -15 5 -15 10 0 6 5 10 11 10 5 0 7 5 4 10 -3 6 -3
16 2 22 4 8 10 1 14 -20 4 -19 12 -39 18 -45z m-1536 43 c-3 -12 -8 -19 -11
-16 -5 6 5 36 12 36 2 0 2 -9 -1 -20z m3257 10 c-24 -5 4 -8 85 -9 66 -1 165
-8 220 -15 l100 -12 -230 -7 c-126 -4 -297 -10 -380 -12 -82 -3 -143 -3 -135
1 54 20 110 49 110 56 0 4 60 7 133 7 84 -1 119 -4 97 -9z m-3210 -4 c0 -3 -4
-8 -10 -11 -5 -3 -10 -1 -10 4 0 6 5 11 10 11 6 0 10 -2 10 -4z m-990 -10 c0
-9 -30 -14 -35 -6 -4 6 3 10 14 10 12 0 21 -2 21 -4z m290 -32 c0 -8 -4 -12
-10 -9 -5 3 -10 10 -10 16 0 5 5 9 10 9 6 0 10 -7 10 -16z m793 -11 c-7 -2
-21 -2 -30 0 -10 3 -4 5 12 5 17 0 24 -2 18 -5z m54 1 c-3 -3 -12 -4 -19 -1
-8 3 -5 6 6 6 11 1 17 -2 13 -5z m8583 -2 c0 -4 -6 -14 -12 -21 -10 -11 -10
-13 0 -7 6 4 12 2 12 -3 0 -12 -11 -14 -33 -5 -14 5 -13 8 1 25 17 20 32 25
32 11z m89 -24 c-12 -21 -13 -21 -17 -4 -2 10 2 22 9 27 20 12 22 4 8 -23z
m151 11 c0 -5 4 -9 10 -9 5 0 7 6 4 13 -3 10 4 14 26 14 21 0 29 -4 26 -13 -3
-8 -1 -16 5 -20 6 -3 13 3 16 15 6 24 23 18 23 -8 0 -14 -13 -20 -64 -29 -38
-6 -102 -29 -157 -56 -92 -45 -143 -56 -185 -42 -14 4 -27 1 -36 -7 -11 -12
-16 -12 -26 -1 -17 18 -15 23 7 19 21 -4 36 19 25 37 -5 7 -12 4 -21 -7 -12
-18 -13 -18 -13 2 0 14 8 22 25 25 14 3 25 1 25 -4 0 -5 5 -6 10 -3 6 3 10 2
10 -3 0 -6 9 -8 20 -5 11 3 27 0 35 -7 12 -10 15 -9 15 4 0 12 9 16 35 16 20
0 35 5 35 12 0 6 7 3 15 -8 17 -22 19 -15 6 20 -14 35 12 57 29 25 l12 -22 29
31 c27 29 59 35 59 11z m367 4 c3 -8 -4 -13 -19 -13 -12 0 -35 -6 -49 -14 -17
-9 -39 -11 -65 -6 -33 6 -36 8 -19 15 11 5 23 14 27 20 10 17 120 14 125 -2z
m-9772 -23 c14 -27 14 -30 -1 -30 -10 0 -14 5 -10 15 3 8 1 15 -4 15 -6 0 -10
7 -10 15 0 23 8 18 25 -15z m1787 3 c-3 -16 -7 -22 -10 -15 -4 13 4 42 11 42
2 0 2 -12 -1 -27z m7046 9 c10 -10 16 -25 14 -33 -2 -8 8 1 23 19 33 40 54 42
25 2 -12 -16 -18 -34 -15 -40 4 -6 -10 -10 -35 -10 -26 0 -39 -4 -35 -10 4 -7
-2 -9 -18 -5 -25 7 -44 -16 -31 -36 7 -12 -73 -48 -107 -49 -14 0 -36 -11 -50
-26 -55 -60 -125 -85 -304 -110 -27 -4 -64 -13 -82 -21 -18 -7 -106 -32 -195
-55 -135 -34 -175 -49 -245 -91 -74 -43 -91 -49 -139 -48 -30 0 -70 3 -88 6
-33 7 -68 -6 -148 -52 -25 -14 -43 -17 -73 -12 l-40 6 52 2 c28 0 55 6 59 13
5 8 1 9 -12 4 -12 -5 -16 -4 -9 3 6 5 23 11 39 13 38 4 45 25 12 34 -38 9
-560 20 -564 12 -5 -12 -40 -10 -47 2 -4 6 -10 8 -15 5 -5 -3 -26 -8 -45 -10
-20 -3 -45 -14 -57 -25 -30 -28 -39 -25 -31 10 5 26 3 30 -13 27 -11 -1 -25
-6 -32 -11 -11 -7 -12 -4 -3 13 14 25 0 28 -23 6 -8 -8 -17 -11 -20 -6 -4 5 0
11 6 14 7 2 10 8 6 12 -4 4 -15 2 -24 -6 -15 -12 -16 -11 -10 9 5 16 3 22 -8
22 -16 0 -46 -26 -46 -40 0 -10 -31 -23 -38 -16 -2 3 3 17 12 30 9 14 12 27 6
31 -5 3 -17 -6 -26 -20 -20 -30 -40 -32 -49 -5 -3 11 -11 20 -16 20 -6 0 -7
-9 -4 -20 8 -24 -1 -26 -22 -4 -11 11 -13 21 -6 36 5 12 6 45 2 77 -5 31 -11
116 -15 188 -6 111 -5 133 8 138 19 7 1145 21 1881 23 545 2 578 1 595 -16z
m152 14 c0 -3 -4 -8 -10 -11 -5 -3 -10 -1 -10 4 0 6 5 11 10 11 6 0 10 -2 10
-4z m609 -5 c10 -7 7 -9 -12 -8 -15 1 -27 5 -27 10 0 10 22 9 39 -2z m-7735
-12 c4 -3 -7 -6 -24 -7 -16 0 -30 3 -30 7 0 8 46 9 54 0z m196 1 c0 -5 -5 -10
-11 -10 -5 0 -7 5 -4 10 3 6 8 10 11 10 2 0 4 -4 4 -10z m6873 -5 c-3 -9 -8
-14 -10 -11 -3 3 -2 9 2 15 9 16 15 13 8 -4z m-9144 -37 c-1 -31 -1 -31 -8 -8
-5 14 -6 28 -4 33 9 15 13 6 12 -25z m-49 -3 c0 -14 -4 -25 -10 -25 -5 0 -10
11 -10 25 0 14 5 25 10 25 6 0 10 -11 10 -25z m150 -5 c0 -16 -4 -30 -8 -30
-4 0 -9 14 -10 30 -1 17 2 30 8 30 5 0 10 -13 10 -30z m-210 -6 c0 -14 -4 -23
-10 -19 -5 3 -10 15 -10 26 0 10 5 19 10 19 6 0 10 -12 10 -26z m9380 22 c0
-3 -4 -8 -10 -11 -5 -3 -10 -1 -10 4 0 6 5 11 10 11 6 0 10 -2 10 -4z m-9780
-31 c0 -14 -4 -25 -10 -25 -8 0 -8 23 -1 48 4 12 11 -3 11 -23z m60 18 c0 -5
-5 -15 -10 -23 -8 -12 -10 -11 -10 8 0 12 5 22 10 22 6 0 10 -3 10 -7z m60
-18 c0 -8 -4 -17 -10 -20 -6 -4 -10 5 -10 20 0 15 4 24 10 20 6 -3 10 -12 10
-20z m39 -2 c0 -25 -1 -25 -8 -8 -5 11 -7 23 -4 28 8 14 13 7 12 -20z m70 20
c0 -5 -4 -17 -9 -28 -8 -18 -9 -17 -9 8 -1 15 4 27 9 27 6 0 10 -3 9 -7z m832
-46 c-10 -9 -11 -8 -5 6 3 10 9 15 12 12 3 -3 0 -11 -7 -18z m-384 7 c-3 -3
-12 -4 -19 -1 -8 3 -5 6 6 6 11 1 17 -2 13 -5z m9067 -21 c-18 -36 -18 -44 3
-36 11 4 14 3 9 -5 -11 -18 -34 -14 -46 7 -13 24 -13 34 -1 26 6 -3 15 4 21
15 6 11 15 20 20 20 5 0 2 -12 -6 -27z m-3134 7 c0 -5 -5 -10 -11 -10 -5 0 -7
5 -4 10 3 6 8 10 11 10 2 0 4 -4 4 -10z m-3639 -199 c2 -182 5 -193 49 -196
19 -1 88 -8 153 -16 92 -10 117 -17 117 -29 1 -13 2 -13 9 0 7 12 25 14 88 11
59 -3 71 -6 48 -11 -16 -4 105 -8 270 -8 265 -1 297 0 275 13 -15 9 -19 14
-10 15 9 0 26 -7 38 -16 21 -14 64 -15 398 -9 206 4 403 3 439 0 65 -7 65 -7
64 -39 0 -26 -2 -28 -9 -11 -7 17 -9 17 -9 3 -1 -14 -10 -18 -38 -19 l-38 -2
40 -7 c36 -6 31 -7 -45 -15 -63 -7 -77 -11 -55 -15 44 -9 -345 -19 -975 -26
-305 -4 -557 -8 -559 -10 -2 -2 9 -4 26 -4 17 0 37 -7 44 -17 13 -15 6 -16
-91 -9 -58 4 -109 11 -115 17 -5 6 -5 9 3 9 7 0 12 4 12 9 0 5 -35 12 -77 16
-125 12 -116 -10 -108 253 3 125 9 240 12 255 5 27 6 28 24 11 17 -15 19 -33
20 -153z m-2151 119 c0 -5 -4 -10 -10 -10 -5 0 -10 5 -10 10 0 6 5 10 10 10 6
0 10 -4 10 -10z m5747 4 c-3 -3 -12 -4 -19 -1 -8 3 -5 6 6 6 11 1 17 -2 13 -5z
m-1190 -61 c-3 -10 -5 -2 -5 17 0 19 2 27 5 18 2 -10 2 -26 0 -35z m-5353 2
c11 -1 22 -7 24 -13 5 -17 -28 -28 -38 -12 -5 8 -9 9 -14 1 -11 -17 -23 -13
-29 8 -6 25 2 34 22 25 9 -4 25 -7 35 -9z m753 -27 c-3 -8 -6 -5 -6 6 -1 11 2
17 5 13 3 -3 4 -12 1 -19z m-92 3 c3 -5 1 -12 -5 -16 -5 -3 -10 1 -10 9 0 18
6 21 15 7z m5835 -21 c0 -11 -2 -20 -4 -20 -2 0 -6 9 -9 20 -3 11 -1 20 4 20
5 0 9 -9 9 -20z m-6290 -10 c0 -11 -7 -20 -15 -20 -15 0 -21 21 -8 33 12 13
23 7 23 -13z m110 -1 c0 -10 -4 -19 -10 -19 -5 0 -10 5 -10 11 0 7 -11 9 -30
6 -21 -5 -30 -3 -30 6 0 8 15 13 40 14 34 2 40 -1 40 -18z m47 -16 c-3 -3 -11
-2 -17 2 -8 5 -7 11 2 22 12 15 13 14 16 -1 2 -10 1 -20 -1 -23z m-277 6 c0
-6 -4 -7 -10 -4 -5 3 -10 11 -10 16 0 6 5 7 10 4 6 -3 10 -11 10 -16z m52 9
c7 -20 -3 -118 -12 -118 -11 0 -19 59 -12 98 5 33 16 42 24 20z m5209 -58 c-5
-25 -9 -35 -10 -24 -1 28 11 92 16 79 1 -6 -1 -30 -6 -55z m-4874 18 c-3 -7
-5 -2 -5 12 0 14 2 19 5 13 2 -7 2 -19 0 -25z m2828 11 c11 -11 -90 -12 -159
-3 -30 4 -43 10 -35 15 16 10 181 -1 194 -12z m-1498 -31 c-3 -8 -6 -5 -6 6
-1 11 2 17 5 13 3 -3 4 -12 1 -19z m30 0 c-3 -8 -6 -5 -6 6 -1 11 2 17 5 13 3
-3 4 -12 1 -19z m73 -13 c0 -8 -4 -15 -10 -15 -5 0 -10 7 -10 15 0 8 5 15 10
15 6 0 10 -7 10 -15z m80 5 c0 -5 -4 -10 -10 -10 -5 0 -10 5 -10 10 0 6 5 10
10 10 6 0 10 -4 10 -10z m60 0 c0 -5 -5 -10 -11 -10 -5 0 -7 5 -4 10 3 6 8 10
11 10 2 0 4 -4 4 -10z m4699 -14 c9 -11 6 -12 -14 -8 -14 2 -22 8 -19 13 8 13
20 11 33 -5z m-4839 -26 c0 -5 -4 -10 -10 -10 -5 0 -10 5 -10 10 0 6 5 10 10
10 6 0 10 -4 10 -10z m1208 -20 c13 0 14 2 4 9 -22 13 104 21 138 8 17 -6 30
-15 30 -19 0 -4 7 -8 15 -8 8 0 15 -4 15 -10 0 -13 -100 -13 -197 1 -82 12
-120 29 -65 29 18 0 32 5 33 13 1 6 3 4 6 -5 2 -10 12 -18 21 -18z m-1728 10
c0 -5 -5 -10 -11 -10 -5 0 -7 5 -4 10 3 6 8 10 11 10 2 0 4 -4 4 -10z m30 0
c0 -5 -5 -10 -11 -10 -5 0 -7 5 -4 10 3 6 8 10 11 10 2 0 4 -4 4 -10z m2525
-12 c4 -13 9 -34 12 -48 l4 -24 -20 26 c-21 26 -28 68 -12 68 5 0 12 -10 16
-22z m35 2 c0 -5 -4 -10 -10 -10 -5 0 -10 5 -10 10 0 6 5 10 10 10 6 0 10 -4
10 -10z m-2070 -10 c0 -5 -4 -10 -10 -10 -5 0 -10 5 -10 10 0 6 5 10 10 10 6
0 10 -4 10 -10z m80 6 c0 -3 -4 -8 -10 -11 -5 -3 -10 -1 -10 4 0 6 5 11 10 11
6 0 10 -2 10 -4z m415 -16 c3 -5 1 -10 -4 -10 -6 0 -11 5 -11 10 0 6 2 10 4
10 3 0 8 -4 11 -10z m30 0 c3 -5 1 -10 -4 -10 -6 0 -11 5 -11 10 0 6 2 10 4
10 3 0 8 -4 11 -10z m2896 -17 c-12 -20 -14 -14 -5 12 4 9 9 14 11 11 3 -2 0
-13 -6 -23z m-5364 -165 c-2 -35 -3 -7 -3 62 0 69 1 97 3 63 2 -35 2 -91 0
-125z m54 -61 c-2 -5 -7 -5 -13 1 -5 5 -6 56 -1 128 l8 119 5 -120 c3 -66 3
-124 1 -128z m109 123 c0 -66 -3 -120 -7 -120 -5 0 -7 54 -5 120 2 66 5 120 8
120 2 0 4 -54 4 -120z m447 28 c-2 -18 -4 -4 -4 32 0 36 2 50 4 33 2 -18 2
-48 0 -65z m74 -53 l-8 -80 -2 81 c0 45 2 97 7 115 l7 34 3 -35 c1 -19 -2 -71
-7 -115z m49 80 c0 -36 -3 -65 -7 -65 -5 0 -6 29 -5 65 2 36 6 65 8 65 2 0 4
-29 4 -65z m690 55 c0 -5 -4 -10 -10 -10 -5 0 -10 5 -10 10 0 6 5 10 10 10 6
0 10 -4 10 -10z m30 0 c0 -5 -5 -10 -11 -10 -5 0 -7 5 -4 10 3 6 8 10 11 10 2
0 4 -4 4 -10z m1050 0 c0 -5 -2 -10 -4 -10 -3 0 -8 5 -11 10 -3 6 -1 10 4 10
6 0 11 -4 11 -10z m-2559 -218 c-13 -21 -15 137 -3 189 5 25 8 6 10 -69 1 -56
-2 -110 -7 -120z m459 191 c0 -20 -3 -24 -11 -16 -7 7 -9 19 -6 27 10 24 17
19 17 -11z m47 -10 c-3 -10 -5 -4 -5 12 0 17 2 24 5 18 2 -7 2 -21 0 -30z m63
-78 c0 -70 -4 -115 -10 -115 -6 0 -10 43 -10 108 0 95 4 122 17 122 2 0 3 -52
3 -115z m1440 99 c0 -2 -9 -4 -21 -4 -11 0 -18 4 -14 10 5 8 35 3 35 -6z m27
-31 c-3 -10 -5 -2 -5 17 0 19 2 27 5 18 2 -10 2 -26 0 -35z m-2090 -135 c-2
-35 -3 -9 -3 57 0 66 1 94 3 63 2 -32 2 -86 0 -120z m1890 125 c-3 -10 -5 -2
-5 17 0 19 2 27 5 18 2 -10 2 -26 0 -35z m35 22 c3 -14 1 -28 -3 -31 -5 -3 -9
9 -9 25 0 38 6 40 12 6z m208 21 c0 -3 -4 -8 -10 -11 -5 -3 -10 -1 -10 4 0 6
5 11 10 11 6 0 10 -2 10 -4z m-600 -16 c0 -5 -4 -10 -10 -10 -5 0 -10 5 -10
10 0 6 5 10 10 10 6 0 10 -4 10 -10z m30 0 c0 -5 -4 -10 -10 -10 -5 0 -10 5
-10 10 0 6 5 10 10 10 6 0 10 -4 10 -10z m400 -17 c0 -14 -3 -23 -7 -19 -10
10 -11 46 -1 46 4 0 8 -12 8 -27z m590 17 c0 -5 -4 -10 -10 -10 -5 0 -10 5
-10 10 0 6 5 10 10 10 6 0 10 -4 10 -10z m27 -37 c-3 -10 -5 -2 -5 17 0 19 2
27 5 18 2 -10 2 -26 0 -35z m-527 17 c0 -5 -7 -7 -15 -4 -8 4 -12 10 -9 15 6
11 24 2 24 -11z m80 0 c0 -5 -4 -10 -10 -10 -5 0 -10 5 -10 10 0 6 5 10 10 10
6 0 10 -4 10 -10z m-600 -10 c0 -5 -4 -10 -10 -10 -5 0 -10 5 -10 10 0 6 5 10
10 10 6 0 10 -4 10 -10z m30 0 c0 -5 -4 -10 -10 -10 -5 0 -10 5 -10 10 0 6 5
10 10 10 6 0 10 -4 10 -10z m60 0 c0 -5 -5 -10 -11 -10 -5 0 -7 5 -4 10 3 6 8
10 11 10 2 0 4 -4 4 -10z m175 0 c3 -5 1 -10 -4 -10 -6 0 -11 5 -11 10 0 6 2
10 4 10 3 0 8 -4 11 -10z m725 0 c0 -5 -4 -10 -10 -10 -5 0 -10 5 -10 10 0 6
5 10 10 10 6 0 10 -4 10 -10z m32 -15 c3 -14 1 -28 -3 -31 -5 -3 -9 9 -9 25 0
38 6 40 12 6z m-2335 -122 c-2 -27 -3 -5 -3 47 0 52 1 74 3 48 2 -27 2 -69 0
-95z m293 52 c0 -49 -4 -85 -10 -85 -6 0 -9 35 -9 85 1 47 6 85 10 85 5 0 9
-38 9 -85z m47 48 c-3 -10 -5 -4 -5 12 0 17 2 24 5 18 2 -7 2 -21 0 -30z m330
-75 c-2 -24 -4 -7 -4 37 0 44 2 63 4 43 2 -21 2 -57 0 -80z m-440 80 c-3 -8
-6 -5 -6 6 -1 11 2 17 5 13 3 -3 4 -12 1 -19z m1605 10 c-9 -9 -15 -9 -24 0
-9 9 -7 12 12 12 19 0 21 -3 12 -12z m78 2 c0 -5 -4 -10 -10 -10 -5 0 -10 5
-10 10 0 6 5 10 10 10 6 0 10 -4 10 -10z m4057 -12 c-3 -8 -6 -5 -6 6 -1 11 2
17 5 13 3 -3 4 -12 1 -19z m-3757 8 c0 -3 -4 -8 -10 -11 -5 -3 -10 -1 -10 4 0
6 5 11 10 11 6 0 10 -2 10 -4z m30 -6 c0 -5 -4 -10 -10 -10 -5 0 -10 5 -10 10
0 6 5 10 10 10 6 0 10 -4 10 -10z m60 0 c0 -5 -4 -10 -10 -10 -5 0 -10 5 -10
10 0 6 5 10 10 10 6 0 10 -4 10 -10z m4378 -2 c15 -15 16 -38 2 -38 -5 0 -10
7 -10 15 0 20 -24 19 -44 -1 -21 -21 -21 -6 1 18 19 21 34 23 51 6z m-5368 -8
c0 -5 -4 -10 -10 -10 -5 0 -10 5 -10 10 0 6 5 10 10 10 6 0 10 -4 10 -10z m30
0 c0 -5 -4 -10 -10 -10 -5 0 -10 5 -10 10 0 6 5 10 10 10 6 0 10 -4 10 -10z
m60 6 c0 -3 -4 -8 -10 -11 -5 -3 -10 -1 -10 4 0 6 5 11 10 11 6 0 10 -2 10 -4z
m30 0 c0 -3 -4 -8 -10 -11 -5 -3 -10 -1 -10 4 0 6 5 11 10 11 6 0 10 -2 10 -4z
m145 -6 c3 -5 1 -10 -4 -10 -6 0 -11 5 -11 10 0 6 2 10 4 10 3 0 8 -4 11 -10z
m95 -15 c0 -14 -4 -25 -9 -25 -4 0 -6 11 -3 25 2 14 6 25 8 25 2 0 4 -11 4
-25z m39 18 c0 -5 -4 -17 -9 -28 -8 -18 -9 -17 -9 8 -1 15 4 27 9 27 6 0 10
-3 9 -7z m31 -3 c0 -5 -4 -10 -10 -10 -5 0 -10 5 -10 10 0 6 5 10 10 10 6 0
10 -4 10 -10z m27 -27 c-3 -10 -5 -4 -5 12 0 17 2 24 5 18 2 -7 2 -21 0 -30z
m603 27 c0 -5 -4 -10 -10 -10 -5 0 -10 5 -10 10 0 6 5 10 10 10 6 0 10 -4 10
-10z m30 0 c0 -5 -4 -10 -10 -10 -5 0 -10 5 -10 10 0 6 5 10 10 10 6 0 10 -4
10 -10z m4180 0 c0 -5 -5 -10 -11 -10 -5 0 -7 5 -4 10 3 6 8 10 11 10 2 0 4
-4 4 -10z m-4740 -11 c0 -5 -9 -9 -20 -9 -11 0 -20 4 -20 8 0 4 9 8 20 9 11 1
20 -2 20 -8z m29 -21 c-1 -31 -1 -31 -8 -8 -5 14 -6 28 -4 33 9 15 13 6 12
-25z m41 18 c0 -3 -4 -8 -10 -11 -5 -3 -10 -1 -10 4 0 6 5 11 10 11 6 0 10 -2
10 -4z m60 -6 c0 -5 -4 -10 -10 -10 -5 0 -10 5 -10 10 0 6 5 10 10 10 6 0 10
-4 10 -10z m4760 0 c0 -5 -5 -10 -11 -10 -5 0 -7 5 -4 10 3 6 8 10 11 10 2 0
4 -4 4 -10z m-5420 -10 c0 -5 -4 -10 -10 -10 -5 0 -10 5 -10 10 0 6 5 10 10
10 6 0 10 -4 10 -10z m30 0 c0 -5 -4 -10 -10 -10 -5 0 -10 5 -10 10 0 6 5 10
10 10 6 0 10 -4 10 -10z m55 0 c3 -5 1 -10 -4 -10 -6 0 -11 5 -11 10 0 6 2 10
4 10 3 0 8 -4 11 -10z m172 -12 c-3 -8 -6 -5 -6 6 -1 11 2 17 5 13 3 -3 4 -12
1 -19z m73 12 c0 -5 -5 -10 -11 -10 -5 0 -7 5 -4 10 3 6 8 10 11 10 2 0 4 -4
4 -10z m100 0 c0 -5 -4 -10 -10 -10 -5 0 -10 5 -10 10 0 6 5 10 10 10 6 0 10
-4 10 -10z m500 0 c0 -5 -4 -10 -10 -10 -5 0 -10 5 -10 10 0 6 5 10 10 10 6 0
10 -4 10 -10z m30 0 c0 -5 -4 -10 -10 -10 -5 0 -10 5 -10 10 0 6 5 10 10 10 6
0 10 -4 10 -10z m35 0 c3 -5 1 -10 -4 -10 -6 0 -11 5 -11 10 0 6 2 10 4 10 3
0 8 -4 11 -10z m35 -32 c0 -49 -5 -47 -13 5 -3 20 -2 37 4 37 5 0 9 -19 9 -42z
m30 11 c0 -16 -4 -28 -8 -25 -5 3 -8 15 -6 28 3 28 3 28 9 28 3 0 5 -14 5 -31z
m5517 25 c-3 -3 -12 -4 -19 -1 -8 3 -5 6 6 6 11 1 17 -2 13 -5z m-7550 -81
c-2 -16 -4 -3 -4 27 0 30 2 43 4 28 2 -16 2 -40 0 -55z m1498 67 c3 -5 1 -10
-4 -10 -6 0 -11 5 -11 10 0 6 2 10 4 10 3 0 8 -4 11 -10z m565 -27 c0 -43 -7
-41 -15 5 -3 19 -1 32 5 32 5 0 10 -16 10 -37z m7959 -295 l1 -188 -87 1 c-99
1 -99 4 0 14 l67 7 2 251 c1 172 3 228 8 177 4 -41 8 -159 9 -262z m-8449 312
c0 -5 -4 -10 -10 -10 -5 0 -10 5 -10 10 0 6 5 10 10 10 6 0 10 -4 10 -10z
m5479 -19 c-15 -5 -22 6 -14 19 6 9 10 9 16 -1 5 -8 4 -15 -2 -18z m-6079 9
c0 -5 -4 -10 -10 -10 -5 0 -10 5 -10 10 0 6 5 10 10 10 6 0 10 -4 10 -10z m25
1 c3 -5 1 -12 -5 -16 -5 -3 -10 1 -10 9 0 18 6 21 15 7z m65 -1 c0 -5 -5 -10
-11 -10 -5 0 -7 5 -4 10 3 6 8 10 11 10 2 0 4 -4 4 -10z m270 0 c0 -5 -4 -10
-10 -10 -5 0 -10 5 -10 10 0 6 5 10 10 10 6 0 10 -4 10 -10z m30 0 c0 -5 -5
-10 -11 -10 -5 0 -7 5 -4 10 3 6 8 10 11 10 2 0 4 -4 4 -10z m35 0 c3 -5 1
-10 -4 -10 -6 0 -11 5 -11 10 0 6 2 10 4 10 3 0 8 -4 11 -10z m35 0 c0 -5 -4
-10 -10 -10 -5 0 -10 5 -10 10 0 6 5 10 10 10 6 0 10 -4 10 -10z m470 0 c0 -5
-4 -10 -10 -10 -5 0 -10 5 -10 10 0 6 5 10 10 10 6 0 10 -4 10 -10z m30 0 c0
-5 -4 -10 -10 -10 -5 0 -10 5 -10 10 0 6 5 10 10 10 6 0 10 -4 10 -10z m35 0
c3 -5 1 -10 -4 -10 -6 0 -11 5 -11 10 0 6 2 10 4 10 3 0 8 -4 11 -10z m-470
-9 c3 -5 1 -12 -5 -16 -5 -3 -10 1 -10 9 0 18 6 21 15 7z m-1207 -24 c2 -10
-3 -17 -12 -17 -10 0 -16 9 -16 21 0 24 23 21 28 -4z m1282 13 c0 -5 -4 -10
-10 -10 -5 0 -10 5 -10 10 0 6 5 10 10 10 6 0 10 -4 10 -10z m60 0 c0 -5 -5
-10 -11 -10 -5 0 -7 5 -4 10 3 6 8 10 11 10 2 0 4 -4 4 -10z m107 -12 c-3 -8
-6 -5 -6 6 -1 11 2 17 5 13 3 -3 4 -12 1 -19z m2730 0 c-3 -8 -6 -5 -6 6 -1
11 2 17 5 13 3 -3 4 -12 1 -19z m-3080 -25 c-3 -10 -5 -4 -5 12 0 17 2 24 5
18 2 -7 2 -21 0 -30z m388 27 c3 -5 1 -10 -4 -10 -6 0 -11 5 -11 10 0 6 2 10
4 10 3 0 8 -4 11 -10z m155 0 c0 -5 -5 -10 -11 -10 -5 0 -7 5 -4 10 3 6 8 10
11 10 2 0 4 -4 4 -10z m35 0 c3 -5 1 -10 -4 -10 -6 0 -11 5 -11 10 0 6 2 10 4
10 3 0 8 -4 11 -10z m-995 -15 c0 -8 -4 -15 -10 -15 -5 0 -10 7 -10 15 0 8 5
15 10 15 6 0 10 -7 10 -15z m30 0 c0 -8 -4 -15 -10 -15 -5 0 -10 7 -10 15 0 8
5 15 10 15 6 0 10 -7 10 -15z m170 5 c0 -5 -5 -10 -11 -10 -5 0 -7 5 -4 10 3
6 8 10 11 10 2 0 4 -4 4 -10z m60 0 c0 -5 -4 -10 -10 -10 -5 0 -10 5 -10 10 0
6 5 10 10 10 6 0 10 -4 10 -10z m30 0 c0 -5 -4 -10 -10 -10 -5 0 -10 5 -10 10
0 6 5 10 10 10 6 0 10 -4 10 -10z m40 0 c0 -5 -4 -10 -10 -10 -5 0 -10 5 -10
10 0 6 5 10 10 10 6 0 10 -4 10 -10z m30 0 c0 -5 -4 -10 -10 -10 -5 0 -10 5
-10 10 0 6 5 10 10 10 6 0 10 -4 10 -10z m30 0 c0 -5 -4 -10 -10 -10 -5 0 -10
5 -10 10 0 6 5 10 10 10 6 0 10 -4 10 -10z m70 3 c0 -5 -5 -15 -10 -23 -8 -12
-10 -11 -10 8 0 12 5 22 10 22 6 0 10 -3 10 -7z m-1543 -25 c-3 -8 -6 -5 -6 6
-1 11 2 17 5 13 3 -3 4 -12 1 -19z m1613 12 c0 -5 -4 -10 -10 -10 -5 0 -10 5
-10 10 0 6 5 10 10 10 6 0 10 -4 10 -10z m29 -17 c0 -25 -1 -25 -8 -8 -5 11
-7 23 -4 28 8 14 13 7 12 -20z m41 2 c0 -14 -4 -25 -8 -25 -4 0 -9 11 -10 25
-1 14 3 25 8 25 6 0 10 -11 10 -25z m27 3 c-3 -8 -6 -5 -6 6 -1 11 2 17 5 13
3 -3 4 -12 1 -19z m33 8 c0 -3 -4 -8 -10 -11 -5 -3 -10 -1 -10 4 0 6 5 11 10
11 6 0 10 -2 10 -4z m60 -6 c0 -5 -4 -10 -10 -10 -5 0 -10 5 -10 10 0 6 5 10
10 10 6 0 10 -4 10 -10z m55 0 c3 -5 1 -10 -4 -10 -6 0 -11 5 -11 10 0 6 2 10
4 10 3 0 8 -4 11 -10z m35 -4 c0 -23 -16 -27 -17 -5 -1 10 2 19 8 19 5 0 9 -6
9 -14z m30 -6 c0 -5 -2 -10 -4 -10 -3 0 -8 5 -11 10 -3 6 -1 10 4 10 6 0 11
-4 11 -10z m70 6 c0 -3 -4 -8 -10 -11 -5 -3 -10 -1 -10 4 0 6 5 11 10 11 6 0
10 -2 10 -4z m3770 -27 c0 -5 -4 -9 -10 -9 -5 0 -10 7 -10 16 0 8 5 12 10 9 6
-3 10 -10 10 -16z m900 -15 c0 -14 -4 -23 -10 -19 -5 3 -10 15 -10 26 0 10 5
19 10 19 6 0 10 -12 10 -26z m-6490 -1 c0 -5 -5 -15 -10 -23 -8 -12 -10 -11
-10 8 0 12 5 22 10 22 6 0 10 -3 10 -7z m2450 -2 c0 -5 -7 -14 -16 -22 -13
-10 -14 -29 -10 -113 3 -56 7 -122 9 -148 2 -54 6 -57 32 -28 10 11 13 20 8
20 -18 0 -31 52 -21 85 5 17 7 57 6 90 -2 48 0 60 12 60 11 0 16 -15 20 -55 6
-68 11 -75 50 -78 41 -3 53 5 40 27 -11 22 11 46 53 56 45 12 40 22 -14 29
-36 5 -56 3 -67 -6 -13 -11 -14 -11 -10 2 4 12 29 15 136 16 l132 1 1 -56 c1
-31 1 -62 0 -68 -1 -7 5 -13 14 -13 8 0 15 -4 15 -10 0 -5 -7 -10 -16 -10 -12
0 -15 -6 -11 -21 3 -12 3 -35 0 -50 -5 -27 -9 -29 -49 -29 -54 0 -66 -16 -16
-23 20 -4 226 -7 456 -7 231 0 422 -3 425 -5 2 -3 -75 -5 -173 -5 l-177 0 3
-97 3 -98 115 -6 115 -5 -122 -2 c-74 -1 -123 -6 -123 -12 0 -5 3 -10 8 -10
39 -2 184 -3 356 -1 203 1 208 2 203 21 -5 20 0 20 248 20 139 0 268 -3 286
-7 l34 -7 -30 -6 c-16 -3 -29 -11 -27 -18 1 -9 -39 -12 -155 -13 -945 -4
-1518 -11 -1523 -20 -4 -5 -58 -16 -121 -24 -63 -8 -122 -17 -130 -20 -25 -9
-29 32 -29 281 0 138 -4 225 -10 229 -5 3 -10 24 -10 45 0 21 5 42 10 45 6 3
10 15 10 25 0 10 10 26 22 34 25 18 38 20 38 7z m3470 -36 c0 -14 -4 -25 -10
-25 -5 0 -10 11 -10 25 0 14 5 25 10 25 6 0 10 -11 10 -25z m-5930 -89 c-6
-15 -9 -5 -8 34 0 50 1 52 8 21 5 -19 4 -44 0 -55z m2576 8 c-11 -7 -22 -11
-25 -8 -3 3 3 12 13 20 11 7 22 11 25 8 3 -3 -3 -12 -13 -20z m1964 -34 c0
-59 -13 -79 -25 -40 -3 11 -12 20 -19 20 -8 0 -11 12 -8 34 4 32 12 40 45 45
4 0 7 -26 7 -59z m77 38 c-3 -8 -6 -5 -6 6 -1 11 2 17 5 13 3 -3 4 -12 1 -19z
m53 2 c0 -5 -4 -10 -10 -10 -5 0 -10 5 -10 10 0 6 5 10 10 10 6 0 10 -4 10
-10z m-91 -27 c0 -25 -1 -25 -8 -8 -5 11 -7 23 -4 28 8 14 13 7 12 -20z
m-4482 -50 c-3 -10 -5 -2 -5 17 0 19 2 27 5 18 2 -10 2 -26 0 -35z m153 16 c0
-27 -3 -30 -22 -23 -30 9 -31 9 -23 33 3 12 15 21 26 21 15 0 19 -7 19 -31z
m-73 -44 c1 -6 -8 -15 -21 -21 -24 -11 -36 -3 -36 26 0 12 53 7 57 -5z m-80
-107 c-2 -18 -4 -6 -4 27 0 33 2 48 4 33 2 -15 2 -42 0 -60z m-160 0 c-3 -8
-6 -5 -6 6 -1 11 2 17 5 13 3 -3 4 -12 1 -19z m61 -75 c0 -54 -3 -116 -8 -138
-6 -28 -8 1 -7 98 0 75 4 137 8 137 4 0 7 -44 7 -97z m5712 77 c0 -5 -4 -10
-10 -10 -5 0 -10 5 -10 10 0 6 5 10 10 10 6 0 10 -4 10 -10z m-44 -28 c-18
-16 -18 -16 -6 6 6 13 14 21 18 18 3 -4 -2 -14 -12 -24z m-1577 -8 c2 -2 -16
-4 -40 -4 -25 0 -54 -6 -65 -14 -14 -11 -15 -14 -4 -14 31 2 105 -4 95 -7 -5
-2 -46 -7 -90 -12 -68 -7 -44 -9 159 -13 164 -3 241 -9 243 -16 7 -20 -37 -24
-289 -24 -230 0 -248 1 -248 18 0 26 165 102 205 95 17 -3 32 -7 34 -9z m-216
-24 c-3 -11 -9 -23 -14 -26 -10 -6 -12 39 -3 49 12 12 22 -3 17 -23z m1504 19
c47 -17 84 -60 120 -138 24 -53 34 -89 34 -126 1 -78 -23 -185 -42 -185 -6 0
-5 9 2 21 8 15 8 19 0 15 -7 -5 -11 2 -11 18 0 34 -16 42 -31 15 -10 -19 -9
-21 6 -15 15 5 16 4 5 -9 -11 -14 -7 -19 13 -16 4 0 7 -3 7 -9 0 -5 -5 -10
-10 -10 -6 0 -31 -19 -55 -41 -25 -23 -62 -47 -82 -55 -28 -10 -32 -13 -15
-14 39 0 87 26 120 66 32 38 52 42 33 6 -20 -37 -79 -80 -121 -87 -35 -6 -48
-3 -87 22 -24 15 -54 44 -65 63 l-21 35 32 -37 c29 -33 38 -38 77 -38 46 0 91
17 112 43 9 11 5 17 -23 30 -50 24 -79 85 -79 167 0 105 50 180 120 180 37 0
48 -9 33 -26 -13 -16 -8 -56 8 -61 14 -5 27 32 17 49 -5 7 -9 21 -9 31 -4 47
-118 120 -162 103 -8 -3 -11 -1 -8 4 8 13 47 13 82 -1z m-1667 -19 c-13 -9
-13 -10 0 -10 13 0 13 -1 0 -10 -13 -8 -12 -10 3 -10 9 0 17 -3 17 -7 0 -5
-32 -6 -71 -5 -66 3 -71 2 -76 -19 l-6 -23 -8 22 c-13 34 -39 28 -39 -9 0 -17
-4 -28 -10 -24 -5 3 -10 15 -10 25 0 10 -4 22 -10 25 -6 4 -10 -8 -10 -29 0
-33 2 -36 30 -36 24 0 30 4 31 23 l0 22 9 -22 c12 -30 24 -29 38 5 11 27 11
27 9 2 -2 -21 3 -25 31 -28 21 -2 32 1 32 9 0 10 3 10 12 1 17 -17 47 -15 54
3 4 8 11 15 16 15 6 0 5 -6 -2 -15 -10 -12 -10 -15 0 -15 10 0 10 -3 0 -15
-10 -12 -10 -15 1 -15 11 -1 11 -2 -1 -9 -8 -5 -113 -11 -232 -15 l-218 -6 0
90 0 90 213 0 c140 0 207 -4 197 -10z m1648 -14 c15 -8 36 -24 47 -37 18 -20
16 -20 -15 4 -20 14 -47 30 -60 36 -14 5 -19 10 -12 10 7 1 25 -5 40 -13z
m-5418 -43 c0 -25 -3 -43 -7 -39 -10 10 -10 86 0 86 4 0 7 -21 7 -47z m157
-75 c-2 -24 -4 -7 -4 37 0 44 2 63 4 43 2 -21 2 -57 0 -80z m74 35 c-3 -94
-11 -93 -11 2 0 43 3 75 6 72 4 -4 6 -37 5 -74z m5558 0 c0 -47 -3 -62 -9 -48
-12 28 -12 115 0 115 6 0 10 -29 9 -67z m-5852 15 c-3 -7 -5 -2 -5 12 0 14 2
19 5 13 2 -7 2 -19 0 -25z m250 0 c-3 -8 -6 -5 -6 6 -1 11 2 17 5 13 3 -3 4
-12 1 -19z m3580 -10 c-3 -8 -6 -5 -6 6 -1 11 2 17 5 13 3 -3 4 -12 1 -19z
m858 3 c3 -10 14 -26 25 -36 29 -27 25 -35 -20 -35 -39 0 -68 20 -91 63 -7 13
-6 17 5 17 8 0 18 -5 22 -11 5 -8 10 -6 16 5 12 22 35 20 43 -3z m-127 -26
c-3 -3 -9 2 -12 12 -6 14 -5 15 5 6 7 -7 10 -15 7 -18z m1776 9 c8 -22 7 -77
-2 -91 -5 -7 -13 -9 -22 -3 -11 7 -11 11 -1 24 13 15 12 30 -4 69 -5 12 -3 17
8 17 8 0 18 -7 21 -16z m-923 -17 c-10 -9 -11 -8 -5 6 3 10 9 15 12 12 3 -3 0
-11 -7 -18z m-5414 -19 c-3 -8 -6 -5 -6 6 -1 11 2 17 5 13 3 -3 4 -12 1 -19z
m63 6 c0 -8 -4 -12 -10 -9 -5 3 -10 10 -10 16 0 5 5 9 10 9 6 0 10 -7 10 -16z
m5517 -6 c-3 -8 -6 -5 -6 6 -1 11 2 17 5 13 3 -3 4 -12 1 -19z m-6075 -53 c3
-16 1 -25 -7 -25 -8 0 -10 9 -7 25 2 14 6 25 7 25 1 0 5 -11 7 -25z m4275 19
c-3 -3 -12 -4 -19 -1 -8 3 -5 6 6 6 11 1 17 -2 13 -5z m1910 -136 c-3 -8 -6
-5 -6 6 -1 11 2 17 5 13 3 -3 4 -12 1 -19z m-3764 -175 c-7 -2 -19 -2 -25 0
-7 3 -2 5 12 5 14 0 19 -2 13 -5z m9281 -459 c3 -8 2 -12 -4 -9 -6 3 -10 10
-10 16 0 14 7 11 14 -7z"/>
<path d="M7220 4096 c0 -2 8 -10 18 -17 15 -13 16 -12 3 4 -13 16 -21 21 -21
13z"/>
<path d="M10381 3334 c8 -10 15 -12 17 -5 2 6 9 8 14 5 7 -4 8 -2 4 4 -4 7
-16 12 -28 12 -18 0 -19 -2 -7 -16z"/>
<path d="M10613 3243 c-30 -20 -29 -33 1 -33 18 0 24 5 24 25 0 14 -1 25 -2
24 0 0 -11 -7 -23 -16z"/>
<path d="M10320 3194 c0 -8 5 -12 10 -9 6 4 8 11 5 16 -9 14 -15 11 -15 -7z"/>
<path d="M10630 3184 c0 -8 9 -14 20 -14 11 0 20 4 20 9 0 5 -9 11 -20 14 -13
3 -20 0 -20 -9z"/>
<path d="M10373 3168 c-31 -15 -40 -42 -11 -32 29 9 67 44 47 43 -8 0 -24 -5
-36 -11z"/>
<path d="M10670 3152 c0 -11 8 -18 20 -19 23 -2 26 7 8 25 -17 17 -28 15 -28
-6z"/>
<path d="M10540 3139 c0 -5 5 -7 10 -4 6 3 10 8 10 11 0 2 -4 4 -10 4 -5 0
-10 -5 -10 -11z"/>
<path d="M10003 2994 c-3 -8 -1 -20 6 -27 6 -6 11 -19 11 -28 0 -12 8 -16 25
-15 14 0 25 5 25 9 0 5 4 6 9 3 5 -4 12 0 15 6 3 7 4 1 2 -14 -3 -28 7 -37 20
-17 5 8 10 6 16 -5 5 -9 13 -16 18 -16 17 0 4 28 -25 54 -28 25 -28 26 -5 15
23 -11 24 -11 10 5 -20 25 -52 36 -68 23 -11 -8 -16 -7 -23 6 -12 21 -28 22
-36 1z"/>
<path d="M9773 2883 c9 -2 25 -2 35 0 9 3 1 5 -18 5 -19 0 -27 -2 -17 -5z"/>
<path d="M5305 4161 c-3 -5 -1 -12 5 -16 5 -3 10 1 10 9 0 18 -6 21 -15 7z"/>
<path d="M5080 4130 c0 -5 4 -10 9 -10 6 0 13 5 16 10 3 6 -1 10 -9 10 -9 0
-16 -4 -16 -10z"/>
<path d="M5305 4100 c-3 -5 -1 -10 4 -10 6 0 11 5 11 10 0 6 -2 10 -4 10 -3 0
-8 -4 -11 -10z"/>
<path d="M4840 4075 c0 -8 6 -15 13 -15 8 0 14 7 14 15 0 8 -6 15 -14 15 -7 0
-13 -7 -13 -15z"/>
<path d="M4845 4010 c4 -6 11 -8 16 -5 14 9 11 15 -7 15 -8 0 -12 -5 -9 -10z"/>
<path d="M4843 3959 c-1 -10 5 -19 13 -19 17 0 18 14 1 28 -10 8 -13 6 -14 -9z"/>
<path d="M4850 3889 c0 -5 5 -7 10 -4 6 3 10 8 10 11 0 2 -4 4 -10 4 -5 0 -10
-5 -10 -11z"/>
<path d="M6890 3713 c0 -22 2 -25 10 -13 13 20 13 40 0 40 -5 0 -10 -12 -10
-27z"/>
<path d="M6857 3573 c-11 -10 -8 -105 2 -98 6 3 10 28 9 55 0 52 0 54 -11 43z"/>
<path d="M6861 3194 c0 -11 3 -14 6 -6 3 7 2 16 -1 19 -3 4 -6 -2 -5 -13z"/>
<path d="M6960 3095 c0 -8 2 -15 4 -15 2 0 6 7 10 15 3 8 1 15 -4 15 -6 0 -10
-7 -10 -15z"/>
<path d="M6639 2948 l-1 -33 -8 30 c-5 20 -7 0 -7 -60 0 -66 2 -77 6 -40 5 48
6 46 11 -30 6 -76 6 -74 8 43 1 67 0 122 -3 122 -3 0 -6 -15 -6 -32z"/>
<path d="M6761 2944 c0 -11 3 -14 6 -6 3 7 2 16 -1 19 -3 4 -6 -2 -5 -13z"/>
<path d="M6760 2832 c0 -52 4 -92 10 -92 8 0 3 169 -6 179 -2 2 -4 -37 -4 -87z"/>
<path d="M6871 2854 c0 -11 3 -14 6 -6 3 7 2 16 -1 19 -3 4 -6 -2 -5 -13z"/>
<path d="M6971 2754 c0 -11 3 -14 6 -6 3 7 2 16 -1 19 -3 4 -6 -2 -5 -13z"/>
<path d="M6973 2560 c0 -30 2 -43 4 -27 2 15 2 39 0 55 -2 15 -4 2 -4 -28z"/>
<path d="M6771 2359 c0 -107 4 -214 9 -239 4 -26 6 53 3 190 -2 129 -6 237 -9
239 -2 2 -4 -83 -3 -190z"/>
<path d="M6970 2475 c1 -26 2 -28 11 -12 8 14 8 22 0 30 -8 8 -11 3 -11 -18z"/>
<path d="M6981 2374 c0 -11 3 -14 6 -6 3 7 2 16 -1 19 -3 4 -6 -2 -5 -13z"/>
<path d="M6781 2034 c0 -11 3 -14 6 -6 3 7 2 16 -1 19 -3 4 -6 -2 -5 -13z"/>
<path d="M6891 1854 c0 -11 3 -14 6 -6 3 7 2 16 -1 19 -3 4 -6 -2 -5 -13z"/>
<path d="M6891 1804 c0 -11 3 -14 6 -6 3 7 2 16 -1 19 -3 4 -6 -2 -5 -13z"/>
<path d="M4430 4070 c0 -11 5 -20 10 -20 6 0 10 9 10 20 0 11 -4 20 -10 20 -5
0 -10 -9 -10 -20z"/>
<path d="M5911 2354 c0 -11 3 -14 6 -6 3 7 2 16 -1 19 -3 4 -6 -2 -5 -13z"/>
<path d="M5636 1801 c-4 -5 3 -7 14 -4 23 6 26 13 6 13 -8 0 -17 -4 -20 -9z"/>
<path d="M3665 3409 c-4 -6 -5 -13 -2 -16 7 -7 27 6 27 18 0 12 -17 12 -25 -2z"/>
<path d="M4633 3413 c43 -2 110 -2 150 0 40 1 5 3 -78 3 -82 0 -115 -2 -72 -3z"/>
<path d="M4448 3403 c12 -2 30 -2 40 0 9 3 -1 5 -23 4 -22 0 -30 -2 -17 -4z"/>
<path d="M10595 3460 c3 -5 8 -10 11 -10 2 0 4 5 4 10 0 6 -5 10 -11 10 -5 0
-7 -4 -4 -10z"/>
<path d="M3091 2944 c0 -11 3 -14 6 -6 3 7 2 16 -1 19 -3 4 -6 -2 -5 -13z"/>
<path d="M11031 3404 c0 -11 3 -14 6 -6 3 7 2 16 -1 19 -3 4 -6 -2 -5 -13z"/>
<path d="M11475 3180 c3 -5 10 -10 16 -10 5 0 9 5 9 10 0 6 -7 10 -16 10 -8 0
-12 -4 -9 -10z"/>
<path d="M11350 3161 c0 -5 5 -13 10 -16 6 -3 10 -2 10 4 0 5 -4 13 -10 16 -5
3 -10 2 -10 -4z"/>
<path d="M11420 3163 c1 -17 40 -54 50 -48 8 5 4 15 -11 31 -22 24 -39 31 -39
17z"/>
<path d="M855 2500 c3 -5 8 -10 11 -10 2 0 4 5 4 10 0 6 -5 10 -11 10 -5 0 -7
-4 -4 -10z"/>
<path d="M314 2695 c3 -21 16 -31 16 -12 0 9 -4 18 -9 21 -5 4 -8 -1 -7 -9z"/>
<path d="M275 2690 c3 -5 11 -10 16 -10 6 0 7 5 4 10 -3 6 -11 10 -16 10 -6 0
-7 -4 -4 -10z"/>
<path d="M1655 2551 c-3 -5 -2 -12 3 -15 5 -3 9 1 9 9 0 17 -3 19 -12 6z"/>
<path d="M1631 2524 c0 -11 3 -14 6 -6 3 7 2 16 -1 19 -3 4 -6 -2 -5 -13z"/>
<path d="M11090 2450 c-9 -6 -10 -10 -3 -10 6 0 15 5 18 10 8 12 4 12 -15 0z"/>
<path d="M3533 1663 c9 -2 23 -2 30 0 6 3 -1 5 -18 5 -16 0 -22 -2 -12 -5z"/>
<path d="M3675 1496 c-4 -26 -3 -52 4 -63 8 -14 10 -5 11 45 0 34 -2 62 -4 62
-3 0 -8 -20 -11 -44z"/>
<path d="M3547 1504 c-4 -4 -17 -8 -29 -9 -38 -4 -39 -5 -33 -15 4 -6 11 -7
17 -4 6 4 14 1 18 -6 11 -19 40 -4 40 20 0 21 -3 24 -13 14z"/>
<path d="M3610 1486 c0 -2 7 -7 16 -10 8 -3 12 -2 9 4 -6 10 -25 14 -25 6z"/>
<path d="M3415 1312 c6 -6 43 -14 83 -19 58 -8 70 -7 60 3 -16 15 -158 31
-143 16z"/>
<path d="M3319 1143 c-5 -15 -9 -36 -7 -47 3 -20 11 -21 108 -24 l105 -2 17
42 c15 37 15 40 2 23 -12 -14 -18 -16 -21 -7 -8 22 -73 42 -134 42 -55 0 -60
-2 -70 -27z m131 -3 c0 -11 -5 -20 -11 -20 -8 0 -8 -5 1 -15 10 -12 9 -15 -4
-15 -19 0 -35 32 -18 38 6 2 8 10 5 18 -3 8 1 14 11 14 9 0 16 -8 16 -20z"/>
<path d="M3640 1118 c-11 -18 -20 -36 -20 -40 0 -14 528 -10 532 4 2 6 2 24 0
40 l-4 28 -244 0 -244 0 -20 -32z"/>
<path d="M6227 1115 c-4 -8 -2 -17 3 -20 6 -4 10 -1 10 6 0 7 3 9 6 6 4 -4 1
-13 -6 -22 -10 -12 -10 -15 3 -15 18 0 29 24 21 45 -8 19 -30 19 -37 0z"/>
<path d="M6255 1060 c-20 -23 -29 -98 -15 -135 5 -14 21 -31 35 -37 23 -10 29
-8 53 15 22 22 27 37 27 75 0 86 -55 131 -100 82z"/>
<path d="M6370 998 c0 -19 2 -20 10 -8 5 8 10 10 10 5 0 -6 -5 -16 -12 -23 -9
-9 -8 -12 5 -12 12 0 17 8 17 30 0 20 -5 30 -15 30 -9 0 -15 -9 -15 -22z"/>
<path d="M6187 990 c-3 -11 -1 -20 4 -20 4 0 6 -7 2 -16 -4 -12 -2 -15 8 -12
17 6 19 60 3 65 -6 2 -14 -5 -17 -17z"/>
<path d="M6235 870 c-8 -27 10 -49 26 -33 13 13 8 45 -8 50 -6 2 -14 -6 -18
-17z"/>
<path d="M4347 1193 c-4 -3 -23 -6 -42 -5 -32 1 -35 -1 -35 -28 0 -31 17 -39
37 -19 8 8 13 8 17 0 9 -14 36 -14 36 0 0 5 -4 7 -10 4 -5 -3 -10 -2 -10 4 0
5 6 12 13 14 8 4 7 6 -3 6 -13 1 -13 2 0 11 8 5 12 11 9 14 -3 4 -9 3 -12 -1z
m-47 -28 c0 -8 -4 -15 -10 -15 -5 0 -10 7 -10 15 0 8 5 15 10 15 6 0 10 -7 10
-15z"/>
<path d="M11840 2649 c0 -5 5 -7 10 -4 6 3 10 8 10 11 0 2 -4 4 -10 4 -5 0
-10 -5 -10 -11z"/>
</g>
</svg>
